<?xml version="1.0" encoding="UTF-8"?>
<svg id="b" data-name="Layer 2" xmlns="http://www.w3.org/2000/svg" viewBox="0 0 604.39 367.04">
  <defs>
    <style>
      .d {
        fill: #001F15;
      }
    </style>
  </defs>
  <g id="c" data-name="Vector Graphics">
    <g>
      <path class="d" d="m173.07,362.37c0,2.58-2.09,4.67-4.67,4.67s-4.67-2.09-4.67-4.67,2.09-4.67,4.67-4.67,4.67,2.09,4.67,4.67Z"/>
      <path class="d" d="m173.07,348.42c0,2.58-2.09,4.67-4.67,4.67s-4.67-2.09-4.67-4.67,2.09-4.67,4.67-4.67,4.67,2.09,4.67,4.67Z"/>
      <path class="d" d="m173.07,336.03c0,2.58-2.09,4.67-4.67,4.67s-4.67-2.09-4.67-4.67,2.09-4.67,4.67-4.67,4.67,2.09,4.67,4.67Z"/>
      <path class="d" d="m173.07,323.63c0,2.58-2.09,4.67-4.67,4.67s-4.67-2.09-4.67-4.67,2.09-4.67,4.67-4.67,4.67,2.09,4.67,4.67Z"/>
      <path class="d" d="m173.07,309.68c0,2.58-2.09,4.67-4.67,4.67s-4.67-2.09-4.67-4.67,2.09-4.66,4.67-4.66,4.67,2.09,4.67,4.66Z"/>
      <path class="d" d="m173.07,297.29c0,2.58-2.09,4.67-4.67,4.67s-4.67-2.09-4.67-4.67,2.09-4.67,4.67-4.67,4.67,2.09,4.67,4.67Z"/>
      <path class="d" d="m185.47,297.29c0,2.58-2.09,4.67-4.67,4.67s-4.67-2.09-4.67-4.67,2.09-4.67,4.67-4.67,4.67,2.09,4.67,4.67Z"/>
      <path class="d" d="m185.47,309.68c0,2.58-2.09,4.67-4.67,4.67s-4.67-2.09-4.67-4.67,2.09-4.66,4.67-4.66,4.67,2.09,4.67,4.66Z"/>
      <path class="d" d="m197.87,297.29c0,2.58-2.09,4.67-4.67,4.67s-4.67-2.09-4.67-4.67,2.09-4.67,4.67-4.67,4.67,2.09,4.67,4.67Z"/>
      <path class="d" d="m173.07,284.89c0,2.58-2.09,4.67-4.67,4.67s-4.67-2.09-4.67-4.67,2.09-4.67,4.67-4.67,4.67,2.09,4.67,4.67Z"/>
      <path class="d" d="m185.47,284.89c0,2.58-2.09,4.67-4.67,4.67s-4.67-2.09-4.67-4.67,2.09-4.67,4.67-4.67,4.67,2.09,4.67,4.67Z"/>
      <path class="d" d="m197.87,284.89c0,2.58-2.09,4.67-4.67,4.67s-4.67-2.09-4.67-4.67,2.09-4.67,4.67-4.67,4.67,2.09,4.67,4.67Z"/>
      <path class="d" d="m211.82,284.89c0,2.58-2.09,4.67-4.67,4.67s-4.67-2.09-4.67-4.67,2.09-4.67,4.67-4.67,4.67,2.09,4.67,4.67Z"/>
      <path class="d" d="m173.07,272.49c0,2.58-2.09,4.67-4.67,4.67s-4.67-2.09-4.67-4.67,2.09-4.66,4.67-4.66,4.67,2.09,4.67,4.66Z"/>
      <path class="d" d="m160.68,272.49c0,2.58-2.09,4.67-4.67,4.67s-4.67-2.09-4.67-4.67,2.09-4.66,4.67-4.66,4.67,2.09,4.67,4.66Z"/>
      <path class="d" d="m185.47,272.49c0,2.58-2.09,4.67-4.67,4.67s-4.67-2.09-4.67-4.67,2.09-4.66,4.67-4.66,4.67,2.09,4.67,4.66Z"/>
      <path class="d" d="m197.87,272.49c0,2.58-2.09,4.67-4.67,4.67s-4.67-2.09-4.67-4.67,2.09-4.66,4.67-4.66,4.67,2.09,4.67,4.66Z"/>
      <path class="d" d="m211.82,272.49c0,2.58-2.09,4.67-4.67,4.67s-4.67-2.09-4.67-4.67,2.09-4.66,4.67-4.66,4.67,2.09,4.67,4.66Z"/>
      <path class="d" d="m173.07,260.1c0,2.58-2.09,4.66-4.67,4.66s-4.67-2.09-4.67-4.66,2.09-4.67,4.67-4.67,4.67,2.09,4.67,4.67Z"/>
      <path class="d" d="m160.68,260.1c0,2.58-2.09,4.66-4.67,4.66s-4.67-2.09-4.67-4.66,2.09-4.67,4.67-4.67,4.67,2.09,4.67,4.67Z"/>
      <path class="d" d="m148.28,260.1c0,2.58-2.09,4.66-4.67,4.66s-4.67-2.09-4.67-4.66,2.09-4.67,4.67-4.67,4.67,2.09,4.67,4.67Z"/>
      <path class="d" d="m185.47,260.1c0,2.58-2.09,4.66-4.67,4.66s-4.67-2.09-4.67-4.66,2.09-4.67,4.67-4.67,4.67,2.09,4.67,4.67Z"/>
      <path class="d" d="m173.07,246.15c0,2.58-2.09,4.67-4.67,4.67s-4.67-2.09-4.67-4.67,2.09-4.67,4.67-4.67,4.67,2.09,4.67,4.67Z"/>
      <path class="d" d="m160.68,246.15c0,2.58-2.09,4.67-4.67,4.67s-4.67-2.09-4.67-4.67,2.09-4.67,4.67-4.67,4.67,2.09,4.67,4.67Z"/>
      <path class="d" d="m148.28,246.15c0,2.58-2.09,4.67-4.67,4.67s-4.67-2.09-4.67-4.67,2.09-4.67,4.67-4.67,4.67,2.09,4.67,4.67Z"/>
      <path class="d" d="m185.47,246.15c0,2.58-2.09,4.67-4.67,4.67s-4.67-2.09-4.67-4.67,2.09-4.67,4.67-4.67,4.67,2.09,4.67,4.67Z"/>
      <path class="d" d="m173.07,233.75c0,2.58-2.09,4.67-4.67,4.67s-4.67-2.09-4.67-4.67,2.09-4.67,4.67-4.67,4.67,2.09,4.67,4.67Z"/>
      <path class="d" d="m160.68,233.75c0,2.58-2.09,4.67-4.67,4.67s-4.67-2.09-4.67-4.67,2.09-4.67,4.67-4.67,4.67,2.09,4.67,4.67Z"/>
      <path class="d" d="m148.28,233.75c0,2.58-2.09,4.67-4.67,4.67s-4.67-2.09-4.67-4.67,2.09-4.67,4.67-4.67,4.67,2.09,4.67,4.67Z"/>
      <path class="d" d="m146.73,221.36c0,2.58-2.09,4.66-4.67,4.66s-4.67-2.09-4.67-4.66,2.09-4.67,4.67-4.67,4.67,2.09,4.67,4.67Z"/>
      <path class="d" d="m134.33,221.36c0,2.58-2.09,4.66-4.67,4.66s-4.67-2.09-4.67-4.66,2.09-4.67,4.67-4.67,4.67,2.09,4.67,4.67Z"/>
      <path class="d" d="m122.45,208.44c0,2.58-2.09,4.66-4.67,4.66s-4.67-2.09-4.67-4.66,2.09-4.67,4.67-4.67,4.67,2.09,4.67,4.67Z"/>
      <path class="d" d="m110.06,208.44c0,2.58-2.09,4.66-4.67,4.66s-4.67-2.09-4.67-4.66,2.09-4.67,4.67-4.67,4.67,2.09,4.67,4.67Z"/>
      <path class="d" d="m122.45,196.04c0,2.58-2.09,4.67-4.67,4.67s-4.67-2.09-4.67-4.67,2.09-4.66,4.67-4.66,4.67,2.09,4.67,4.66Z"/>
      <path class="d" d="m110.06,196.04c0,2.58-2.09,4.67-4.67,4.67s-4.67-2.09-4.67-4.67,2.09-4.66,4.67-4.66,4.67,2.09,4.67,4.66Z"/>
      <path class="d" d="m97.66,196.04c0,2.58-2.09,4.67-4.67,4.67s-4.67-2.09-4.67-4.67,2.09-4.66,4.67-4.66,4.67,2.09,4.67,4.66Z"/>
      <path class="d" d="m122.45,183.65c0,2.58-2.09,4.67-4.67,4.67s-4.67-2.09-4.67-4.67,2.09-4.67,4.67-4.67,4.67,2.09,4.67,4.67Z"/>
      <path class="d" d="m110.06,183.65c0,2.58-2.09,4.67-4.67,4.67s-4.67-2.09-4.67-4.67,2.09-4.67,4.67-4.67,4.67,2.09,4.67,4.67Z"/>
      <path class="d" d="m97.66,183.65c0,2.58-2.09,4.67-4.67,4.67s-4.67-2.09-4.67-4.67,2.09-4.67,4.67-4.67,4.67,2.09,4.67,4.67Z"/>
      <path class="d" d="m85.26,183.65c0,2.58-2.09,4.67-4.67,4.67s-4.67-2.09-4.67-4.67,2.09-4.67,4.67-4.67,4.67,2.09,4.67,4.67Z"/>
      <path class="d" d="m159.65,183.65c0,2.58-2.09,4.67-4.67,4.67s-4.67-2.09-4.67-4.67,2.09-4.67,4.67-4.67,4.67,2.09,4.67,4.67Z"/>
      <path class="d" d="m147.25,183.65c0,2.58-2.09,4.67-4.67,4.67s-4.67-2.09-4.67-4.67,2.09-4.67,4.67-4.67,4.67,2.09,4.67,4.67Z"/>
      <path class="d" d="m134.85,183.65c0,2.58-2.09,4.67-4.67,4.67s-4.67-2.09-4.67-4.67,2.09-4.67,4.67-4.67,4.67,2.09,4.67,4.67Z"/>
      <circle class="d" cx="117.79" cy="171.25" r="4.67"/>
      <path class="d" d="m110.06,171.25c0,2.58-2.09,4.67-4.67,4.67s-4.67-2.09-4.67-4.67,2.09-4.67,4.67-4.67,4.67,2.09,4.67,4.67Z"/>
      <path class="d" d="m97.66,171.25c0,2.58-2.09,4.67-4.67,4.67s-4.67-2.09-4.67-4.67,2.09-4.67,4.67-4.67,4.67,2.09,4.67,4.67Z"/>
      <path class="d" d="m85.26,171.25c0,2.58-2.09,4.67-4.67,4.67s-4.67-2.09-4.67-4.67,2.09-4.67,4.67-4.67,4.67,2.09,4.67,4.67Z"/>
      <path class="d" d="m159.65,171.25c0,2.58-2.09,4.67-4.67,4.67s-4.67-2.09-4.67-4.67,2.09-4.67,4.67-4.67,4.67,2.09,4.67,4.67Z"/>
      <circle class="d" cx="142.58" cy="171.25" r="4.67"/>
      <path class="d" d="m134.85,171.25c0,2.58-2.09,4.67-4.67,4.67s-4.67-2.09-4.67-4.67,2.09-4.67,4.67-4.67,4.67,2.09,4.67,4.67Z"/>
      <circle class="d" cx="117.79" cy="157.3" r="4.67"/>
      <path class="d" d="m110.06,157.3c0,2.58-2.09,4.67-4.67,4.67s-4.67-2.09-4.67-4.67,2.09-4.67,4.67-4.67,4.67,2.09,4.67,4.67Z"/>
      <path class="d" d="m97.66,157.3c0,2.58-2.09,4.67-4.67,4.67s-4.67-2.09-4.67-4.67,2.09-4.67,4.67-4.67,4.67,2.09,4.67,4.67Z"/>
      <path class="d" d="m85.26,157.3c0,2.58-2.09,4.67-4.67,4.67s-4.67-2.09-4.67-4.67,2.09-4.67,4.67-4.67,4.67,2.09,4.67,4.67Z"/>
      <path class="d" d="m159.65,157.3c0,2.58-2.09,4.67-4.67,4.67s-4.67-2.09-4.67-4.67,2.09-4.67,4.67-4.67,4.67,2.09,4.67,4.67Z"/>
      <path class="d" d="m173.59,157.3c0,2.58-2.09,4.67-4.67,4.67s-4.67-2.09-4.67-4.67,2.09-4.67,4.67-4.67,4.67,2.09,4.67,4.67Z"/>
      <path class="d" d="m185.99,157.3c0,2.58-2.09,4.67-4.67,4.67s-4.67-2.09-4.67-4.67,2.09-4.67,4.67-4.67,4.67,2.09,4.67,4.67Z"/>
      <circle class="d" cx="142.58" cy="157.3" r="4.67"/>
      <path class="d" d="m134.85,157.3c0,2.58-2.09,4.67-4.67,4.67s-4.67-2.09-4.67-4.67,2.09-4.67,4.67-4.67,4.67,2.09,4.67,4.67Z"/>
      <circle class="d" cx="117.79" cy="144.91" r="4.67"/>
      <path class="d" d="m110.06,144.91c0,2.58-2.09,4.67-4.67,4.67s-4.67-2.09-4.67-4.67,2.09-4.67,4.67-4.67,4.67,2.09,4.67,4.67Z"/>
      <path class="d" d="m97.66,144.91c0,2.58-2.09,4.67-4.67,4.67s-4.67-2.09-4.67-4.67,2.09-4.67,4.67-4.67,4.67,2.09,4.67,4.67Z"/>
      <path class="d" d="m85.26,144.91c0,2.58-2.09,4.67-4.67,4.67s-4.67-2.09-4.67-4.67,2.09-4.67,4.67-4.67,4.67,2.09,4.67,4.67Z"/>
      <circle class="d" cx="66.65" cy="144.91" r="4.67"/>
      <path class="d" d="m159.65,144.91c0,2.58-2.09,4.67-4.67,4.67s-4.67-2.09-4.67-4.67,2.09-4.67,4.67-4.67,4.67,2.09,4.67,4.67Z"/>
      <path class="d" d="m173.59,144.91c0,2.58-2.09,4.67-4.67,4.67s-4.67-2.09-4.67-4.67,2.09-4.67,4.67-4.67,4.67,2.09,4.67,4.67Z"/>
      <path class="d" d="m185.99,144.91c0,2.58-2.09,4.67-4.67,4.67s-4.67-2.09-4.67-4.67,2.09-4.67,4.67-4.67,4.67,2.09,4.67,4.67Z"/>
      <circle class="d" cx="142.58" cy="144.91" r="4.67"/>
      <path class="d" d="m134.85,144.91c0,2.58-2.09,4.67-4.67,4.67s-4.67-2.09-4.67-4.67,2.09-4.67,4.67-4.67,4.67,2.09,4.67,4.67Z"/>
      <path class="d" d="m58.92,119.34c0,2.58-2.09,4.67-4.67,4.67s-4.67-2.09-4.67-4.67,2.09-4.67,4.67-4.67,4.67,2.09,4.67,4.67Z"/>
      <path class="d" d="m46.52,119.34c0,2.58-2.09,4.67-4.67,4.67s-4.67-2.09-4.67-4.67,2.09-4.67,4.67-4.67,4.67,2.09,4.67,4.67Z"/>
      <path class="d" d="m34.13,119.34c0,2.58-2.09,4.67-4.67,4.67s-4.67-2.09-4.67-4.67,2.09-4.67,4.67-4.67,4.67,2.09,4.67,4.67Z"/>
      <path class="d" d="m21.73,119.34c0,2.58-2.09,4.67-4.67,4.67s-4.67-2.09-4.67-4.67,2.09-4.67,4.67-4.67,4.67,2.09,4.67,4.67Z"/>
      <path class="d" d="m21.73,131.73c0,2.58-2.09,4.67-4.67,4.67s-4.67-2.09-4.67-4.67,2.09-4.67,4.67-4.67,4.67,2.09,4.67,4.67Z"/>
      <path class="d" d="m96.11,119.34c0,2.58-2.09,4.67-4.67,4.67s-4.67-2.09-4.67-4.67,2.09-4.67,4.67-4.67,4.67,2.09,4.67,4.67Z"/>
      <path class="d" d="m110.06,119.34c0,2.58-2.09,4.67-4.67,4.67s-4.67-2.09-4.67-4.67,2.09-4.67,4.67-4.67,4.67,2.09,4.67,4.67Z"/>
      <path class="d" d="m122.45,119.34c0,2.58-2.09,4.67-4.67,4.67s-4.67-2.09-4.67-4.67,2.09-4.67,4.67-4.67,4.67,2.09,4.67,4.67Z"/>
      <path class="d" d="m83.71,119.34c0,2.58-2.09,4.67-4.67,4.67s-4.67-2.09-4.67-4.67,2.09-4.67,4.67-4.67,4.67,2.09,4.67,4.67Z"/>
      <path class="d" d="m71.32,119.34c0,2.58-2.09,4.67-4.67,4.67s-4.67-2.09-4.67-4.67,2.09-4.67,4.67-4.67,4.67,2.09,4.67,4.67Z"/>
      <path class="d" d="m58.92,106.94c0,2.58-2.09,4.67-4.67,4.67s-4.67-2.09-4.67-4.67,2.09-4.67,4.67-4.67,4.67,2.09,4.67,4.67Z"/>
      <path class="d" d="m46.52,106.94c0,2.58-2.09,4.67-4.67,4.67s-4.67-2.09-4.67-4.67,2.09-4.67,4.67-4.67,4.67,2.09,4.67,4.67Z"/>
      <path class="d" d="m34.13,106.94c0,2.58-2.09,4.67-4.67,4.67s-4.67-2.09-4.67-4.67,2.09-4.67,4.67-4.67,4.67,2.09,4.67,4.67Z"/>
      <path class="d" d="m21.73,106.94c0,2.58-2.09,4.67-4.67,4.67s-4.67-2.09-4.67-4.67,2.09-4.67,4.67-4.67,4.67,2.09,4.67,4.67Z"/>
      <path class="d" d="m96.11,106.94c0,2.58-2.09,4.67-4.67,4.67s-4.67-2.09-4.67-4.67,2.09-4.67,4.67-4.67,4.67,2.09,4.67,4.67Z"/>
      <path class="d" d="m110.06,106.94c0,2.58-2.09,4.67-4.67,4.67s-4.67-2.09-4.67-4.67,2.09-4.67,4.67-4.67,4.67,2.09,4.67,4.67Z"/>
      <path class="d" d="m122.45,106.94c0,2.58-2.09,4.67-4.67,4.67s-4.67-2.09-4.67-4.67,2.09-4.67,4.67-4.67,4.67,2.09,4.67,4.67Z"/>
      <path class="d" d="m134.85,106.94c0,2.58-2.09,4.67-4.67,4.67s-4.67-2.09-4.67-4.67,2.09-4.67,4.67-4.67,4.67,2.09,4.67,4.67Z"/>
      <path class="d" d="m83.71,106.94c0,2.58-2.09,4.67-4.67,4.67s-4.67-2.09-4.67-4.67,2.09-4.67,4.67-4.67,4.67,2.09,4.67,4.67Z"/>
      <path class="d" d="m71.32,106.94c0,2.58-2.09,4.67-4.67,4.67s-4.67-2.09-4.67-4.67,2.09-4.67,4.67-4.67,4.67,2.09,4.67,4.67Z"/>
      <path class="d" d="m58.92,94.54c0,2.58-2.09,4.67-4.67,4.67s-4.67-2.09-4.67-4.67,2.09-4.67,4.67-4.67,4.67,2.09,4.67,4.67Z"/>
      <path class="d" d="m46.52,94.54c0,2.58-2.09,4.67-4.67,4.67s-4.67-2.09-4.67-4.67,2.09-4.67,4.67-4.67,4.67,2.09,4.67,4.67Z"/>
      <path class="d" d="m34.13,94.54c0,2.58-2.09,4.67-4.67,4.67s-4.67-2.09-4.67-4.67,2.09-4.67,4.67-4.67,4.67,2.09,4.67,4.67Z"/>
      <path class="d" d="m21.73,94.54c0,2.58-2.09,4.67-4.67,4.67s-4.67-2.09-4.67-4.67,2.09-4.67,4.67-4.67,4.67,2.09,4.67,4.67Z"/>
      <path class="d" d="m9.33,94.54c0,2.58-2.09,4.67-4.67,4.67s-4.67-2.09-4.67-4.67,2.09-4.67,4.67-4.67,4.67,2.09,4.67,4.67Z"/>
      <path class="d" d="m96.11,94.54c0,2.58-2.09,4.67-4.67,4.67s-4.67-2.09-4.67-4.67,2.09-4.67,4.67-4.67,4.67,2.09,4.67,4.67Z"/>
      <path class="d" d="m110.06,94.54c0,2.58-2.09,4.67-4.67,4.67s-4.67-2.09-4.67-4.67,2.09-4.67,4.67-4.67,4.67,2.09,4.67,4.67Z"/>
      <path class="d" d="m122.45,94.54c0,2.58-2.09,4.67-4.67,4.67s-4.67-2.09-4.67-4.67,2.09-4.67,4.67-4.67,4.67,2.09,4.67,4.67Z"/>
      <path class="d" d="m134.85,94.54c0,2.58-2.09,4.67-4.67,4.67s-4.67-2.09-4.67-4.67,2.09-4.67,4.67-4.67,4.67,2.09,4.67,4.67Z"/>
      <path class="d" d="m83.71,94.54c0,2.58-2.09,4.67-4.67,4.67s-4.67-2.09-4.67-4.67,2.09-4.67,4.67-4.67,4.67,2.09,4.67,4.67Z"/>
      <path class="d" d="m71.32,94.54c0,2.58-2.09,4.67-4.67,4.67s-4.67-2.09-4.67-4.67,2.09-4.67,4.67-4.67,4.67,2.09,4.67,4.67Z"/>
      <path class="d" d="m362.65,94.54c0,2.58-2.09,4.67-4.67,4.67s-4.67-2.09-4.67-4.67,2.09-4.67,4.67-4.67,4.67,2.09,4.67,4.67Z"/>
      <path class="d" d="m350.25,94.54c0,2.58-2.09,4.67-4.67,4.67s-4.67-2.09-4.67-4.67,2.09-4.67,4.67-4.67,4.67,2.09,4.67,4.67Z"/>
      <path class="d" d="m337.85,94.54c0,2.58-2.09,4.67-4.66,4.67s-4.67-2.09-4.67-4.67,2.09-4.67,4.67-4.67,4.66,2.09,4.66,4.67Z"/>
      <path class="d" d="m325.46,94.54c0,2.58-2.09,4.67-4.67,4.67s-4.67-2.09-4.67-4.67,2.09-4.67,4.67-4.67,4.67,2.09,4.67,4.67Z"/>
      <path class="d" d="m337.85,82.15c0,2.58-2.09,4.67-4.66,4.67s-4.67-2.09-4.67-4.67,2.09-4.67,4.67-4.67,4.66,2.09,4.66,4.67Z"/>
      <path class="d" d="m325.46,82.15c0,2.58-2.09,4.67-4.67,4.67s-4.67-2.09-4.67-4.67,2.09-4.67,4.67-4.67,4.67,2.09,4.67,4.67Z"/>
      <path class="d" d="m313.06,94.54c0,2.58-2.09,4.67-4.67,4.67s-4.67-2.09-4.67-4.67,2.09-4.67,4.67-4.67,4.67,2.09,4.67,4.67Z"/>
      <path class="d" d="m399.84,94.54c0,2.58-2.09,4.67-4.67,4.67s-4.67-2.09-4.67-4.67,2.09-4.67,4.67-4.67,4.67,2.09,4.67,4.67Z"/>
      <path class="d" d="m413.78,94.54c0,2.58-2.09,4.67-4.67,4.67s-4.66-2.09-4.66-4.67,2.09-4.67,4.66-4.67,4.67,2.09,4.67,4.67Z"/>
      <path class="d" d="m426.18,94.54c0,2.58-2.09,4.67-4.66,4.67s-4.67-2.09-4.67-4.67,2.09-4.67,4.67-4.67,4.66,2.09,4.66,4.67Z"/>
      <path class="d" d="m438.58,94.54c0,2.58-2.09,4.67-4.67,4.67s-4.66-2.09-4.66-4.67,2.09-4.67,4.66-4.67,4.67,2.09,4.67,4.67Z"/>
      <path class="d" d="m387.44,94.54c0,2.58-2.09,4.67-4.67,4.67s-4.66-2.09-4.66-4.67,2.09-4.67,4.66-4.67,4.67,2.09,4.67,4.67Z"/>
      <path class="d" d="m375.04,94.54c0,2.58-2.09,4.67-4.67,4.67s-4.67-2.09-4.67-4.67,2.09-4.67,4.67-4.67,4.67,2.09,4.67,4.67Z"/>
      <path class="d" d="m502.11,94.54c0,2.58-2.09,4.67-4.67,4.67s-4.67-2.09-4.67-4.67,2.09-4.67,4.67-4.67,4.67,2.09,4.67,4.67Z"/>
      <path class="d" d="m489.72,94.54c0,2.58-2.09,4.67-4.67,4.67s-4.67-2.09-4.67-4.67,2.09-4.67,4.67-4.67,4.67,2.09,4.67,4.67Z"/>
      <path class="d" d="m477.32,94.54c0,2.58-2.09,4.67-4.67,4.67s-4.66-2.09-4.66-4.67,2.09-4.67,4.66-4.67,4.67,2.09,4.67,4.67Z"/>
      <path class="d" d="m464.92,94.54c0,2.58-2.09,4.67-4.67,4.67s-4.67-2.09-4.67-4.67,2.09-4.67,4.67-4.67,4.67,2.09,4.67,4.67Z"/>
      <path class="d" d="m452.53,94.54c0,2.58-2.09,4.67-4.67,4.67s-4.67-2.09-4.67-4.67,2.09-4.67,4.67-4.67,4.67,2.09,4.67,4.67Z"/>
      <path class="d" d="m539.3,94.54c0,2.58-2.09,4.67-4.66,4.67s-4.67-2.09-4.67-4.67,2.09-4.67,4.67-4.67,4.66,2.09,4.66,4.67Z"/>
      <path class="d" d="m553.25,94.54c0,2.58-2.09,4.67-4.67,4.67s-4.67-2.09-4.67-4.67,2.09-4.67,4.67-4.67,4.67,2.09,4.67,4.67Z"/>
      <path class="d" d="m565.65,94.54c0,2.58-2.09,4.67-4.66,4.67s-4.67-2.09-4.67-4.67,2.09-4.67,4.67-4.67,4.66,2.09,4.66,4.67Z"/>
      <path class="d" d="m578.05,94.54c0,2.58-2.09,4.67-4.67,4.67s-4.67-2.09-4.67-4.67,2.09-4.67,4.67-4.67,4.67,2.09,4.67,4.67Z"/>
      <path class="d" d="m591.99,94.54c0,2.58-2.09,4.67-4.66,4.67s-4.67-2.09-4.67-4.67,2.09-4.67,4.67-4.67,4.66,2.09,4.66,4.67Z"/>
      <path class="d" d="m604.39,94.54c0,2.58-2.09,4.67-4.67,4.67s-4.67-2.09-4.67-4.67,2.09-4.67,4.67-4.67,4.67,2.09,4.67,4.67Z"/>
      <path class="d" d="m526.91,94.54c0,2.58-2.09,4.67-4.67,4.67s-4.66-2.09-4.66-4.67,2.09-4.67,4.66-4.67,4.67,2.09,4.67,4.67Z"/>
      <path class="d" d="m514.51,94.54c0,2.58-2.09,4.67-4.67,4.67s-4.67-2.09-4.67-4.67,2.09-4.67,4.67-4.67,4.67,2.09,4.67,4.67Z"/>
      <path class="d" d="m313.06,144.13c0,2.58-2.09,4.67-4.67,4.67s-4.67-2.09-4.67-4.67,2.09-4.67,4.67-4.67,4.67,2.09,4.67,4.67Z"/>
      <path class="d" d="m300.66,144.13c0,2.58-2.09,4.67-4.67,4.67s-4.67-2.09-4.67-4.67,2.09-4.67,4.67-4.67,4.67,2.09,4.67,4.67Z"/>
      <path class="d" d="m288.26,144.13c0,2.58-2.09,4.67-4.67,4.67s-4.67-2.09-4.67-4.67,2.09-4.67,4.67-4.67,4.67,2.09,4.67,4.67Z"/>
      <path class="d" d="m275.87,144.13c0,2.58-2.09,4.67-4.67,4.67s-4.67-2.09-4.67-4.67,2.09-4.67,4.67-4.67,4.67,2.09,4.67,4.67Z"/>
      <path class="d" d="m275.87,131.73c0,2.58-2.09,4.67-4.67,4.67s-4.67-2.09-4.67-4.67,2.09-4.67,4.67-4.67,4.67,2.09,4.67,4.67Z"/>
      <path class="d" d="m263.47,144.13c0,2.58-2.09,4.67-4.67,4.67s-4.67-2.09-4.67-4.67,2.09-4.67,4.67-4.67,4.67,2.09,4.67,4.67Z"/>
      <path class="d" d="m350.25,144.13c0,2.58-2.09,4.67-4.67,4.67s-4.67-2.09-4.67-4.67,2.09-4.67,4.67-4.67,4.67,2.09,4.67,4.67Z"/>
      <path class="d" d="m364.2,144.13c0,2.58-2.09,4.67-4.67,4.67s-4.67-2.09-4.67-4.67,2.09-4.67,4.67-4.67,4.67,2.09,4.67,4.67Z"/>
      <path class="d" d="m376.59,144.13c0,2.58-2.09,4.67-4.67,4.67s-4.67-2.09-4.67-4.67,2.09-4.67,4.67-4.67,4.67,2.09,4.67,4.67Z"/>
      <path class="d" d="m388.99,144.13c0,2.58-2.09,4.67-4.66,4.67s-4.67-2.09-4.67-4.67,2.09-4.67,4.67-4.67,4.66,2.09,4.66,4.67Z"/>
      <path class="d" d="m337.85,144.13c0,2.58-2.09,4.67-4.66,4.67s-4.67-2.09-4.67-4.67,2.09-4.67,4.67-4.67,4.66,2.09,4.66,4.67Z"/>
      <path class="d" d="m325.46,144.13c0,2.58-2.09,4.67-4.67,4.67s-4.67-2.09-4.67-4.67,2.09-4.67,4.67-4.67,4.67,2.09,4.67,4.67Z"/>
      <path class="d" d="m452.53,144.13c0,2.58-2.09,4.67-4.67,4.67s-4.67-2.09-4.67-4.67,2.09-4.67,4.67-4.67,4.67,2.09,4.67,4.67Z"/>
      <path class="d" d="m440.13,144.13c0,2.58-2.09,4.67-4.67,4.67s-4.66-2.09-4.66-4.67,2.09-4.67,4.66-4.67,4.67,2.09,4.67,4.67Z"/>
      <path class="d" d="m427.73,144.13c0,2.58-2.09,4.67-4.67,4.67s-4.67-2.09-4.67-4.67,2.09-4.67,4.67-4.67,4.67,2.09,4.67,4.67Z"/>
      <path class="d" d="m415.33,144.13c0,2.58-2.09,4.67-4.67,4.67s-4.67-2.09-4.67-4.67,2.09-4.67,4.67-4.67,4.67,2.09,4.67,4.67Z"/>
      <path class="d" d="m402.94,144.13c0,2.58-2.09,4.67-4.67,4.67s-4.67-2.09-4.67-4.67,2.09-4.67,4.67-4.67,4.67,2.09,4.67,4.67Z"/>
      <path class="d" d="m489.72,144.13c0,2.58-2.09,4.67-4.67,4.67s-4.67-2.09-4.67-4.67,2.09-4.67,4.67-4.67,4.67,2.09,4.67,4.67Z"/>
      <path class="d" d="m503.66,144.13c0,2.58-2.09,4.67-4.67,4.67s-4.67-2.09-4.67-4.67,2.09-4.67,4.67-4.67,4.67,2.09,4.67,4.67Z"/>
      <path class="d" d="m516.06,144.13c0,2.58-2.09,4.67-4.67,4.67s-4.67-2.09-4.67-4.67,2.09-4.67,4.67-4.67,4.67,2.09,4.67,4.67Z"/>
      <path class="d" d="m554.8,128.64c0,2.58-2.09,4.67-4.66,4.67s-4.67-2.09-4.67-4.67,2.09-4.67,4.67-4.67,4.66,2.09,4.66,4.67Z"/>
      <path class="d" d="m553.25,144.91c0,2.58-2.09,4.67-4.67,4.67s-4.67-2.09-4.67-4.67,2.09-4.67,4.67-4.67,4.67,2.09,4.67,4.67Z"/>
      <path class="d" d="m526.91,171.25c0,2.58-2.09,4.67-4.67,4.67s-4.66-2.09-4.66-4.67,2.09-4.67,4.66-4.67,4.67,2.09,4.67,4.67Z"/>
      <path class="d" d="m516.06,183.65c0,2.58-2.09,4.67-4.67,4.67s-4.67-2.09-4.67-4.67,2.09-4.67,4.67-4.67,4.67,2.09,4.67,4.67Z"/>
      <path class="d" d="m477.32,144.13c0,2.58-2.09,4.67-4.67,4.67s-4.66-2.09-4.66-4.67,2.09-4.67,4.66-4.67,4.67,2.09,4.67,4.67Z"/>
      <path class="d" d="m464.92,144.13c0,2.58-2.09,4.67-4.67,4.67s-4.67-2.09-4.67-4.67,2.09-4.67,4.67-4.67,4.67,2.09,4.67,4.67Z"/>
      <path class="d" d="m313.06,158.08c0,2.58-2.09,4.67-4.67,4.67s-4.67-2.09-4.67-4.67,2.09-4.67,4.67-4.67,4.67,2.09,4.67,4.67Z"/>
      <circle class="d" cx="296" cy="158.08" r="4.67"/>
      <path class="d" d="m288.26,158.08c0,2.58-2.09,4.67-4.67,4.67s-4.67-2.09-4.67-4.67,2.09-4.67,4.67-4.67,4.67,2.09,4.67,4.67Z"/>
      <path class="d" d="m275.87,158.08c0,2.58-2.09,4.67-4.67,4.67s-4.67-2.09-4.67-4.67,2.09-4.67,4.67-4.67,4.67,2.09,4.67,4.67Z"/>
      <path class="d" d="m350.25,158.08c0,2.58-2.09,4.67-4.67,4.67s-4.67-2.09-4.67-4.67,2.09-4.67,4.67-4.67,4.67,2.09,4.67,4.67Z"/>
      <path class="d" d="m364.2,158.08c0,2.58-2.09,4.67-4.67,4.67s-4.67-2.09-4.67-4.67,2.09-4.67,4.67-4.67,4.67,2.09,4.67,4.67Z"/>
      <path class="d" d="m376.59,158.08c0,2.58-2.09,4.67-4.67,4.67s-4.67-2.09-4.67-4.67,2.09-4.67,4.67-4.67,4.67,2.09,4.67,4.67Z"/>
      <path class="d" d="m388.99,158.08c0,2.58-2.09,4.67-4.66,4.67s-4.67-2.09-4.67-4.67,2.09-4.67,4.67-4.67,4.66,2.09,4.66,4.67Z"/>
      <path class="d" d="m337.85,158.08c0,2.58-2.09,4.67-4.66,4.67s-4.67-2.09-4.67-4.67,2.09-4.67,4.67-4.67,4.66,2.09,4.66,4.67Z"/>
      <path class="d" d="m325.46,158.08c0,2.58-2.09,4.67-4.67,4.67s-4.67-2.09-4.67-4.67,2.09-4.67,4.67-4.67,4.67,2.09,4.67,4.67Z"/>
      <path class="d" d="m452.53,158.08c0,2.58-2.09,4.67-4.67,4.67s-4.67-2.09-4.67-4.67,2.09-4.67,4.67-4.67,4.67,2.09,4.67,4.67Z"/>
      <path class="d" d="m440.13,158.08c0,2.58-2.09,4.67-4.67,4.67s-4.66-2.09-4.66-4.67,2.09-4.67,4.66-4.67,4.67,2.09,4.67,4.67Z"/>
      <path class="d" d="m427.73,158.08c0,2.58-2.09,4.67-4.67,4.67s-4.67-2.09-4.67-4.67,2.09-4.67,4.67-4.67,4.67,2.09,4.67,4.67Z"/>
      <path class="d" d="m415.33,158.08c0,2.58-2.09,4.67-4.67,4.67s-4.67-2.09-4.67-4.67,2.09-4.67,4.67-4.67,4.67,2.09,4.67,4.67Z"/>
      <circle class="d" cx="398.27" cy="158.08" r="4.67"/>
      <path class="d" d="m489.72,158.08c0,2.58-2.09,4.67-4.67,4.67s-4.67-2.09-4.67-4.67,2.09-4.67,4.67-4.67,4.67,2.09,4.67,4.67Z"/>
      <circle class="d" cx="499" cy="158.08" r="4.67"/>
      <path class="d" d="m516.06,158.08c0,2.58-2.09,4.67-4.67,4.67s-4.67-2.09-4.67-4.67,2.09-4.67,4.67-4.67,4.67,2.09,4.67,4.67Z"/>
      <path class="d" d="m477.32,158.08c0,2.58-2.09,4.67-4.67,4.67s-4.66-2.09-4.66-4.67,2.09-4.67,4.66-4.67,4.67,2.09,4.67,4.67Z"/>
      <path class="d" d="m464.92,158.08c0,2.58-2.09,4.67-4.67,4.67s-4.67-2.09-4.67-4.67,2.09-4.67,4.67-4.67,4.67,2.09,4.67,4.67Z"/>
      <path class="d" d="m275.87,195.27c0,2.58-2.09,4.67-4.67,4.67s-4.67-2.09-4.67-4.67,2.09-4.66,4.67-4.66,4.67,2.09,4.67,4.66Z"/>
      <path class="d" d="m263.47,195.27c0,2.58-2.09,4.67-4.67,4.67s-4.67-2.09-4.67-4.67,2.09-4.66,4.67-4.66,4.67,2.09,4.67,4.66Z"/>
      <path class="d" d="m313.06,195.27c0,2.58-2.09,4.67-4.67,4.67s-4.67-2.09-4.67-4.67,2.09-4.66,4.67-4.66,4.67,2.09,4.67,4.66Z"/>
      <path class="d" d="m327.01,195.27c0,2.58-2.09,4.67-4.67,4.67s-4.66-2.09-4.66-4.67,2.09-4.66,4.66-4.66,4.67,2.09,4.67,4.66Z"/>
      <path class="d" d="m339.4,195.27c0,2.58-2.09,4.67-4.67,4.67s-4.67-2.09-4.67-4.67,2.09-4.66,4.67-4.66,4.67,2.09,4.67,4.66Z"/>
      <path class="d" d="m351.8,195.27c0,2.58-2.09,4.67-4.67,4.67s-4.66-2.09-4.66-4.67,2.09-4.66,4.66-4.66,4.67,2.09,4.67,4.66Z"/>
      <path class="d" d="m300.66,195.27c0,2.58-2.09,4.67-4.67,4.67s-4.67-2.09-4.67-4.67,2.09-4.66,4.67-4.66,4.67,2.09,4.67,4.66Z"/>
      <path class="d" d="m288.26,195.27c0,2.58-2.09,4.67-4.67,4.67s-4.67-2.09-4.67-4.67,2.09-4.66,4.67-4.66,4.67,2.09,4.67,4.66Z"/>
      <path class="d" d="m415.33,195.27c0,2.58-2.09,4.67-4.67,4.67s-4.67-2.09-4.67-4.67,2.09-4.66,4.67-4.66,4.67,2.09,4.67,4.66Z"/>
      <path class="d" d="m402.94,195.27c0,2.58-2.09,4.67-4.67,4.67s-4.67-2.09-4.67-4.67,2.09-4.66,4.67-4.66,4.67,2.09,4.67,4.66Z"/>
      <path class="d" d="m390.54,195.27c0,2.58-2.09,4.67-4.67,4.67s-4.67-2.09-4.67-4.67,2.09-4.66,4.67-4.66,4.67,2.09,4.67,4.66Z"/>
      <path class="d" d="m378.14,195.27c0,2.58-2.09,4.67-4.67,4.67s-4.67-2.09-4.67-4.67,2.09-4.66,4.67-4.66,4.67,2.09,4.67,4.66Z"/>
      <path class="d" d="m365.75,195.27c0,2.58-2.09,4.67-4.67,4.67s-4.67-2.09-4.67-4.67,2.09-4.66,4.67-4.66,4.67,2.09,4.67,4.66Z"/>
      <path class="d" d="m452.53,195.27c0,2.58-2.09,4.67-4.67,4.67s-4.67-2.09-4.67-4.67,2.09-4.66,4.67-4.66,4.67,2.09,4.67,4.66Z"/>
      <path class="d" d="m466.47,195.27c0,2.58-2.09,4.67-4.67,4.67s-4.66-2.09-4.66-4.67,2.09-4.66,4.66-4.66,4.67,2.09,4.67,4.66Z"/>
      <path class="d" d="m478.87,195.27c0,2.58-2.09,4.67-4.67,4.67s-4.66-2.09-4.66-4.67,2.09-4.66,4.66-4.66,4.67,2.09,4.67,4.66Z"/>
      <path class="d" d="m440.13,195.27c0,2.58-2.09,4.67-4.67,4.67s-4.66-2.09-4.66-4.67,2.09-4.66,4.66-4.66,4.67,2.09,4.67,4.66Z"/>
      <path class="d" d="m427.73,195.27c0,2.58-2.09,4.67-4.67,4.67s-4.67-2.09-4.67-4.67,2.09-4.66,4.67-4.66,4.67,2.09,4.67,4.66Z"/>
      <path class="d" d="m275.87,207.67c0,2.58-2.09,4.66-4.67,4.66s-4.67-2.09-4.67-4.66,2.09-4.67,4.67-4.67,4.67,2.09,4.67,4.67Z"/>
      <path class="d" d="m263.47,207.67c0,2.58-2.09,4.66-4.67,4.66s-4.67-2.09-4.67-4.66,2.09-4.67,4.67-4.67,4.67,2.09,4.67,4.67Z"/>
      <path class="d" d="m313.06,207.67c0,2.58-2.09,4.66-4.67,4.66s-4.67-2.09-4.67-4.66,2.09-4.67,4.67-4.67,4.67,2.09,4.67,4.67Z"/>
      <path class="d" d="m327.01,207.67c0,2.58-2.09,4.66-4.67,4.66s-4.66-2.09-4.66-4.66,2.09-4.67,4.66-4.67,4.67,2.09,4.67,4.67Z"/>
      <path class="d" d="m339.4,207.67c0,2.58-2.09,4.66-4.67,4.66s-4.67-2.09-4.67-4.66,2.09-4.67,4.67-4.67,4.67,2.09,4.67,4.67Z"/>
      <path class="d" d="m351.8,207.67c0,2.58-2.09,4.66-4.67,4.66s-4.66-2.09-4.66-4.66,2.09-4.67,4.66-4.67,4.67,2.09,4.67,4.67Z"/>
      <path class="d" d="m300.66,207.67c0,2.58-2.09,4.66-4.67,4.66s-4.67-2.09-4.67-4.66,2.09-4.67,4.67-4.67,4.67,2.09,4.67,4.67Z"/>
      <path class="d" d="m288.26,207.67c0,2.58-2.09,4.66-4.67,4.66s-4.67-2.09-4.67-4.66,2.09-4.67,4.67-4.67,4.67,2.09,4.67,4.67Z"/>
      <path class="d" d="m415.33,207.67c0,2.58-2.09,4.66-4.67,4.66s-4.67-2.09-4.67-4.66,2.09-4.67,4.67-4.67,4.67,2.09,4.67,4.67Z"/>
      <path class="d" d="m378.14,207.67c0,2.58-2.09,4.66-4.67,4.66s-4.67-2.09-4.67-4.66,2.09-4.67,4.67-4.67,4.67,2.09,4.67,4.67Z"/>
      <path class="d" d="m365.75,207.67c0,2.58-2.09,4.66-4.67,4.66s-4.67-2.09-4.67-4.66,2.09-4.67,4.67-4.67,4.67,2.09,4.67,4.67Z"/>
      <path class="d" d="m275.87,221.61c0,2.58-2.09,4.67-4.67,4.67s-4.67-2.09-4.67-4.67,2.09-4.67,4.67-4.67,4.67,2.09,4.67,4.67Z"/>
      <path class="d" d="m263.47,221.61c0,2.58-2.09,4.67-4.67,4.67s-4.67-2.09-4.67-4.67,2.09-4.67,4.67-4.67,4.67,2.09,4.67,4.67Z"/>
      <path class="d" d="m313.06,221.61c0,2.58-2.09,4.67-4.67,4.67s-4.67-2.09-4.67-4.67,2.09-4.67,4.67-4.67,4.67,2.09,4.67,4.67Z"/>
      <path class="d" d="m327.01,221.61c0,2.58-2.09,4.67-4.67,4.67s-4.66-2.09-4.66-4.67,2.09-4.67,4.66-4.67,4.67,2.09,4.67,4.67Z"/>
      <path class="d" d="m339.4,221.61c0,2.58-2.09,4.67-4.67,4.67s-4.67-2.09-4.67-4.67,2.09-4.67,4.67-4.67,4.67,2.09,4.67,4.67Z"/>
      <path class="d" d="m351.8,221.61c0,2.58-2.09,4.67-4.67,4.67s-4.66-2.09-4.66-4.67,2.09-4.67,4.66-4.67,4.67,2.09,4.67,4.67Z"/>
      <path class="d" d="m300.66,221.61c0,2.58-2.09,4.67-4.67,4.67s-4.67-2.09-4.67-4.67,2.09-4.67,4.67-4.67,4.67,2.09,4.67,4.67Z"/>
      <path class="d" d="m288.26,221.61c0,2.58-2.09,4.67-4.67,4.67s-4.67-2.09-4.67-4.67,2.09-4.67,4.67-4.67,4.67,2.09,4.67,4.67Z"/>
      <path class="d" d="m378.14,221.61c0,2.58-2.09,4.67-4.67,4.67s-4.67-2.09-4.67-4.67,2.09-4.67,4.67-4.67,4.67,2.09,4.67,4.67Z"/>
      <path class="d" d="m415.33,219.31c0,2.58-2.09,4.67-4.67,4.67s-4.67-2.09-4.67-4.67,2.09-4.67,4.67-4.67,4.67,2.09,4.67,4.67Z"/>
      <path class="d" d="m415.33,233.25c0,2.58-2.09,4.67-4.67,4.67s-4.67-2.09-4.67-4.67,2.09-4.67,4.67-4.67,4.67,2.09,4.67,4.67Z"/>
      <path class="d" d="m365.75,221.61c0,2.58-2.09,4.67-4.67,4.67s-4.67-2.09-4.67-4.67,2.09-4.67,4.67-4.67,4.67,2.09,4.67,4.67Z"/>
      <path class="d" d="m275.87,234.01c0,2.58-2.09,4.67-4.67,4.67s-4.67-2.09-4.67-4.67,2.09-4.66,4.67-4.66,4.67,2.09,4.67,4.66Z"/>
      <path class="d" d="m263.47,234.01c0,2.58-2.09,4.67-4.67,4.67s-4.67-2.09-4.67-4.67,2.09-4.66,4.67-4.66,4.67,2.09,4.67,4.66Z"/>
      <path class="d" d="m313.06,234.01c0,2.58-2.09,4.67-4.67,4.67s-4.67-2.09-4.67-4.67,2.09-4.66,4.67-4.66,4.67,2.09,4.67,4.66Z"/>
      <path class="d" d="m327.01,234.01c0,2.58-2.09,4.67-4.67,4.67s-4.66-2.09-4.66-4.67,2.09-4.66,4.66-4.66,4.67,2.09,4.67,4.66Z"/>
      <path class="d" d="m339.4,234.01c0,2.58-2.09,4.67-4.67,4.67s-4.67-2.09-4.67-4.67,2.09-4.66,4.67-4.66,4.67,2.09,4.67,4.66Z"/>
      <path class="d" d="m351.8,234.01c0,2.58-2.09,4.67-4.67,4.67s-4.66-2.09-4.66-4.67,2.09-4.66,4.66-4.66,4.67,2.09,4.67,4.66Z"/>
      <path class="d" d="m300.66,234.01c0,2.58-2.09,4.67-4.67,4.67s-4.67-2.09-4.67-4.67,2.09-4.66,4.67-4.66,4.67,2.09,4.67,4.66Z"/>
      <path class="d" d="m288.26,234.01c0,2.58-2.09,4.67-4.67,4.67s-4.67-2.09-4.67-4.67,2.09-4.66,4.67-4.66,4.67,2.09,4.67,4.66Z"/>
      <path class="d" d="m365.75,234.01c0,2.58-2.09,4.67-4.67,4.67s-4.67-2.09-4.67-4.67,2.09-4.66,4.67-4.66,4.67,2.09,4.67,4.66Z"/>
      <path class="d" d="m313.06,246.41c0,2.58-2.09,4.67-4.67,4.67s-4.67-2.09-4.67-4.67,2.09-4.67,4.67-4.67,4.67,2.09,4.67,4.67Z"/>
      <path class="d" d="m327.01,246.41c0,2.58-2.09,4.67-4.67,4.67s-4.66-2.09-4.66-4.67,2.09-4.67,4.66-4.67,4.67,2.09,4.67,4.67Z"/>
      <path class="d" d="m339.4,246.41c0,2.58-2.09,4.67-4.67,4.67s-4.67-2.09-4.67-4.67,2.09-4.67,4.67-4.67,4.67,2.09,4.67,4.67Z"/>
      <path class="d" d="m351.8,246.41c0,2.58-2.09,4.67-4.67,4.67s-4.66-2.09-4.66-4.67,2.09-4.67,4.66-4.67,4.67,2.09,4.67,4.67Z"/>
      <path class="d" d="m365.75,246.41c0,2.58-2.09,4.67-4.67,4.67s-4.67-2.09-4.67-4.67,2.09-4.67,4.67-4.67,4.67,2.09,4.67,4.67Z"/>
      <path class="d" d="m313.06,258.81c0,2.58-2.09,4.67-4.67,4.67s-4.67-2.09-4.67-4.67,2.09-4.67,4.67-4.67,4.67,2.09,4.67,4.67Z"/>
      <path class="d" d="m327.01,258.81c0,2.58-2.09,4.67-4.67,4.67s-4.66-2.09-4.66-4.67,2.09-4.67,4.66-4.67,4.67,2.09,4.67,4.67Z"/>
      <path class="d" d="m339.4,258.81c0,2.58-2.09,4.67-4.67,4.67s-4.67-2.09-4.67-4.67,2.09-4.67,4.67-4.67,4.67,2.09,4.67,4.67Z"/>
      <path class="d" d="m313.06,271.2c0,2.58-2.09,4.67-4.67,4.67s-4.67-2.09-4.67-4.67,2.09-4.67,4.67-4.67,4.67,2.09,4.67,4.67Z"/>
      <path class="d" d="m327.01,271.2c0,2.58-2.09,4.67-4.67,4.67s-4.66-2.09-4.66-4.67,2.09-4.67,4.66-4.67,4.67,2.09,4.67,4.67Z"/>
      <path class="d" d="m339.4,271.2c0,2.58-2.09,4.67-4.67,4.67s-4.67-2.09-4.67-4.67,2.09-4.67,4.67-4.67,4.67,2.09,4.67,4.67Z"/>
      <path class="d" d="m313.06,283.6c0,2.58-2.09,4.67-4.67,4.67s-4.67-2.09-4.67-4.67,2.09-4.67,4.67-4.67,4.67,2.09,4.67,4.67Z"/>
      <path class="d" d="m327.01,283.6c0,2.58-2.09,4.67-4.67,4.67s-4.66-2.09-4.66-4.67,2.09-4.67,4.66-4.67,4.67,2.09,4.67,4.67Z"/>
      <path class="d" d="m313.06,297.55c0,2.58-2.09,4.67-4.67,4.67s-4.67-2.09-4.67-4.67,2.09-4.67,4.67-4.67,4.67,2.09,4.67,4.67Z"/>
      <path class="d" d="m327.01,297.55c0,2.58-2.09,4.67-4.67,4.67s-4.66-2.09-4.66-4.67,2.09-4.67,4.66-4.67,4.67,2.09,4.67,4.67Z"/>
      <path class="d" d="m339.4,283.6c0,2.58-2.09,4.67-4.67,4.67s-4.67-2.09-4.67-4.67,2.09-4.67,4.67-4.67,4.67,2.09,4.67,4.67Z"/>
      <path class="d" d="m364.2,271.2c0,2.58-2.09,4.67-4.67,4.67s-4.67-2.09-4.67-4.67,2.09-4.67,4.67-4.67,4.67,2.09,4.67,4.67Z"/>
      <path class="d" d="m364.2,283.6c0,2.58-2.09,4.67-4.67,4.67s-4.67-2.09-4.67-4.67,2.09-4.67,4.67-4.67,4.67,2.09,4.67,4.67Z"/>
      <path class="d" d="m351.8,258.81c0,2.58-2.09,4.67-4.67,4.67s-4.66-2.09-4.66-4.67,2.09-4.67,4.66-4.67,4.67,2.09,4.67,4.67Z"/>
      <path class="d" d="m452.53,207.67c0,2.58-2.09,4.66-4.67,4.66s-4.67-2.09-4.67-4.66,2.09-4.67,4.67-4.67,4.67,2.09,4.67,4.67Z"/>
      <path class="d" d="m466.47,207.67c0,2.58-2.09,4.66-4.67,4.66s-4.66-2.09-4.66-4.66,2.09-4.67,4.66-4.67,4.67,2.09,4.67,4.67Z"/>
      <path class="d" d="m452.53,220.07c0,2.58-2.09,4.67-4.67,4.67s-4.67-2.09-4.67-4.67,2.09-4.67,4.67-4.67,4.67,2.09,4.67,4.67Z"/>
      <path class="d" d="m466.47,220.07c0,2.58-2.09,4.67-4.67,4.67s-4.66-2.09-4.66-4.67,2.09-4.67,4.66-4.67,4.67,2.09,4.67,4.67Z"/>
      <path class="d" d="m466.47,234.01c0,2.58-2.09,4.67-4.67,4.67s-4.66-2.09-4.66-4.67,2.09-4.66,4.66-4.66,4.67,2.09,4.67,4.66Z"/>
      <path class="d" d="m491.27,234.01c0,2.58-2.09,4.67-4.67,4.67s-4.66-2.09-4.66-4.67,2.09-4.66,4.66-4.66,4.67,2.09,4.67,4.66Z"/>
      <path class="d" d="m478.87,207.67c0,2.58-2.09,4.66-4.67,4.66s-4.66-2.09-4.66-4.66,2.09-4.67,4.66-4.67,4.67,2.09,4.67,4.67Z"/>
      <path class="d" d="m440.13,207.67c0,2.58-2.09,4.66-4.67,4.66s-4.66-2.09-4.66-4.66,2.09-4.67,4.66-4.67,4.67,2.09,4.67,4.67Z"/>
      <path class="d" d="m427.73,207.67c0,2.58-2.09,4.66-4.67,4.66s-4.67-2.09-4.67-4.66,2.09-4.67,4.67-4.67,4.67,2.09,4.67,4.67Z"/>
      <path class="d" d="m313.06,170.48c0,2.58-2.09,4.67-4.67,4.67s-4.67-2.09-4.67-4.67,2.09-4.67,4.67-4.67,4.67,2.09,4.67,4.67Z"/>
      <path class="d" d="m300.66,170.48c0,2.58-2.09,4.67-4.67,4.67s-4.67-2.09-4.67-4.67,2.09-4.67,4.67-4.67,4.67,2.09,4.67,4.67Z"/>
      <path class="d" d="m288.26,170.48c0,2.58-2.09,4.67-4.67,4.67s-4.67-2.09-4.67-4.67,2.09-4.67,4.67-4.67,4.67,2.09,4.67,4.67Z"/>
      <path class="d" d="m275.87,170.48c0,2.58-2.09,4.67-4.67,4.67s-4.67-2.09-4.67-4.67,2.09-4.67,4.67-4.67,4.67,2.09,4.67,4.67Z"/>
      <path class="d" d="m288.26,182.87c0,2.58-2.09,4.67-4.67,4.67s-4.67-2.09-4.67-4.67,2.09-4.67,4.67-4.67,4.67,2.09,4.67,4.67Z"/>
      <path class="d" d="m275.87,182.87c0,2.58-2.09,4.67-4.67,4.67s-4.67-2.09-4.67-4.67,2.09-4.67,4.67-4.67,4.67,2.09,4.67,4.67Z"/>
      <path class="d" d="m350.25,170.48c0,2.58-2.09,4.67-4.67,4.67s-4.67-2.09-4.67-4.67,2.09-4.67,4.67-4.67,4.67,2.09,4.67,4.67Z"/>
      <path class="d" d="m364.2,170.48c0,2.58-2.09,4.67-4.67,4.67s-4.67-2.09-4.67-4.67,2.09-4.67,4.67-4.67,4.67,2.09,4.67,4.67Z"/>
      <path class="d" d="m376.59,170.48c0,2.58-2.09,4.67-4.67,4.67s-4.67-2.09-4.67-4.67,2.09-4.67,4.67-4.67,4.67,2.09,4.67,4.67Z"/>
      <path class="d" d="m388.99,170.48c0,2.58-2.09,4.67-4.66,4.67s-4.67-2.09-4.67-4.67,2.09-4.67,4.67-4.67,4.66,2.09,4.66,4.67Z"/>
      <path class="d" d="m325.46,170.48c0,2.58-2.09,4.67-4.67,4.67s-4.67-2.09-4.67-4.67,2.09-4.67,4.67-4.67,4.67,2.09,4.67,4.67Z"/>
      <path class="d" d="m452.53,170.48c0,2.58-2.09,4.67-4.67,4.67s-4.67-2.09-4.67-4.67,2.09-4.67,4.67-4.67,4.67,2.09,4.67,4.67Z"/>
      <path class="d" d="m440.13,170.48c0,2.58-2.09,4.67-4.67,4.67s-4.66-2.09-4.66-4.67,2.09-4.67,4.66-4.67,4.67,2.09,4.67,4.67Z"/>
      <path class="d" d="m427.73,170.48c0,2.58-2.09,4.67-4.67,4.67s-4.67-2.09-4.67-4.67,2.09-4.67,4.67-4.67,4.67,2.09,4.67,4.67Z"/>
      <path class="d" d="m415.33,170.48c0,2.58-2.09,4.67-4.67,4.67s-4.67-2.09-4.67-4.67,2.09-4.67,4.67-4.67,4.67,2.09,4.67,4.67Z"/>
      <path class="d" d="m402.94,170.48c0,2.58-2.09,4.67-4.67,4.67s-4.67-2.09-4.67-4.67,2.09-4.67,4.67-4.67,4.67,2.09,4.67,4.67Z"/>
      <path class="d" d="m489.72,170.48c0,2.58-2.09,4.67-4.67,4.67s-4.67-2.09-4.67-4.67,2.09-4.67,4.67-4.67,4.67,2.09,4.67,4.67Z"/>
      <path class="d" d="m503.66,170.48c0,2.58-2.09,4.67-4.67,4.67s-4.67-2.09-4.67-4.67,2.09-4.67,4.67-4.67,4.67,2.09,4.67,4.67Z"/>
      <path class="d" d="m477.32,170.48c0,2.58-2.09,4.67-4.67,4.67s-4.66-2.09-4.66-4.67,2.09-4.67,4.66-4.67,4.67,2.09,4.67,4.67Z"/>
      <path class="d" d="m464.92,170.48c0,2.58-2.09,4.67-4.67,4.67s-4.67-2.09-4.67-4.67,2.09-4.67,4.67-4.67,4.67,2.09,4.67,4.67Z"/>
      <path class="d" d="m350.25,182.87c0,2.58-2.09,4.67-4.67,4.67s-4.67-2.09-4.67-4.67,2.09-4.67,4.67-4.67,4.67,2.09,4.67,4.67Z"/>
      <path class="d" d="m364.2,182.87c0,2.58-2.09,4.67-4.67,4.67s-4.67-2.09-4.67-4.67,2.09-4.67,4.67-4.67,4.67,2.09,4.67,4.67Z"/>
      <path class="d" d="m323.91,182.87c0,2.58-2.09,4.67-4.67,4.67s-4.67-2.09-4.67-4.67,2.09-4.67,4.67-4.67,4.67,2.09,4.67,4.67Z"/>
      <path class="d" d="m337.85,182.87c0,2.58-2.09,4.67-4.66,4.67s-4.67-2.09-4.67-4.67,2.09-4.67,4.67-4.67,4.66,2.09,4.66,4.67Z"/>
      <path class="d" d="m376.59,182.87c0,2.58-2.09,4.67-4.67,4.67s-4.67-2.09-4.67-4.67,2.09-4.67,4.67-4.67,4.67,2.09,4.67,4.67Z"/>
      <path class="d" d="m388.99,182.87c0,2.58-2.09,4.67-4.66,4.67s-4.67-2.09-4.67-4.67,2.09-4.67,4.67-4.67,4.66,2.09,4.66,4.67Z"/>
      <path class="d" d="m452.53,182.87c0,2.58-2.09,4.67-4.67,4.67s-4.67-2.09-4.67-4.67,2.09-4.67,4.67-4.67,4.67,2.09,4.67,4.67Z"/>
      <path class="d" d="m440.13,182.87c0,2.58-2.09,4.67-4.67,4.67s-4.66-2.09-4.66-4.67,2.09-4.67,4.66-4.67,4.67,2.09,4.67,4.67Z"/>
      <path class="d" d="m427.73,182.87c0,2.58-2.09,4.67-4.67,4.67s-4.67-2.09-4.67-4.67,2.09-4.67,4.67-4.67,4.67,2.09,4.67,4.67Z"/>
      <path class="d" d="m415.33,182.87c0,2.58-2.09,4.67-4.67,4.67s-4.67-2.09-4.67-4.67,2.09-4.67,4.67-4.67,4.67,2.09,4.67,4.67Z"/>
      <path class="d" d="m402.94,182.87c0,2.58-2.09,4.67-4.67,4.67s-4.67-2.09-4.67-4.67,2.09-4.67,4.67-4.67,4.67,2.09,4.67,4.67Z"/>
      <path class="d" d="m489.72,182.87c0,2.58-2.09,4.67-4.67,4.67s-4.67-2.09-4.67-4.67,2.09-4.67,4.67-4.67,4.67,2.09,4.67,4.67Z"/>
      <path class="d" d="m477.32,182.87c0,2.58-2.09,4.67-4.67,4.67s-4.66-2.09-4.66-4.67,2.09-4.67,4.66-4.67,4.67,2.09,4.67,4.67Z"/>
      <path class="d" d="m464.92,182.87c0,2.58-2.09,4.67-4.67,4.67s-4.67-2.09-4.67-4.67,2.09-4.67,4.67-4.67,4.67,2.09,4.67,4.67Z"/>
      <path class="d" d="m491.25,258.81c0,2.58-2.09,4.67-4.67,4.67s-4.67-2.09-4.67-4.67,2.09-4.67,4.67-4.67,4.67,2.09,4.67,4.67Z"/>
      <path class="d" d="m478.85,258.81c0,2.58-2.09,4.67-4.67,4.67s-4.66-2.09-4.66-4.67,2.09-4.67,4.66-4.67,4.67,2.09,4.67,4.67Z"/>
      <path class="d" d="m478.85,246.41c0,2.58-2.09,4.67-4.67,4.67s-4.66-2.09-4.66-4.67,2.09-4.67,4.66-4.67,4.67,2.09,4.67,4.67Z"/>
      <path class="d" d="m452.51,246.41c0,2.58-2.09,4.67-4.66,4.67s-4.67-2.09-4.67-4.67,2.09-4.67,4.67-4.67,4.66,2.09,4.66,4.67Z"/>
      <path class="d" d="m466.46,258.81c0,2.58-2.09,4.67-4.67,4.67s-4.67-2.09-4.67-4.67,2.09-4.67,4.67-4.67,4.67,2.09,4.67,4.67Z"/>
      <path class="d" d="m528.44,258.81c0,2.58-2.09,4.67-4.67,4.67s-4.66-2.09-4.66-4.67,2.09-4.67,4.66-4.67,4.67,2.09,4.67,4.67Z"/>
      <path class="d" d="m516.04,258.81c0,2.58-2.09,4.67-4.67,4.67s-4.67-2.09-4.67-4.67,2.09-4.67,4.67-4.67,4.67,2.09,4.67,4.67Z"/>
      <path class="d" d="m503.65,258.81c0,2.58-2.09,4.67-4.66,4.67s-4.67-2.09-4.67-4.67,2.09-4.67,4.67-4.67,4.66,2.09,4.66,4.67Z"/>
      <path class="d" d="m491.25,285.15c0,2.58-2.09,4.67-4.67,4.67s-4.67-2.09-4.67-4.67,2.09-4.67,4.67-4.67,4.67,2.09,4.67,4.67Z"/>
      <path class="d" d="m478.85,285.15c0,2.58-2.09,4.67-4.67,4.67s-4.66-2.09-4.66-4.67,2.09-4.67,4.66-4.67,4.67,2.09,4.67,4.67Z"/>
      <path class="d" d="m528.44,285.15c0,2.58-2.09,4.67-4.67,4.67s-4.66-2.09-4.66-4.67,2.09-4.67,4.66-4.67,4.67,2.09,4.67,4.67Z"/>
      <path class="d" d="m516.04,285.15c0,2.58-2.09,4.67-4.67,4.67s-4.67-2.09-4.67-4.67,2.09-4.67,4.67-4.67,4.67,2.09,4.67,4.67Z"/>
      <path class="d" d="m503.65,285.15c0,2.58-2.09,4.67-4.66,4.67s-4.67-2.09-4.67-4.67,2.09-4.67,4.67-4.67,4.66,2.09,4.66,4.67Z"/>
      <path class="d" d="m491.25,297.55c0,2.58-2.09,4.67-4.67,4.67s-4.67-2.09-4.67-4.67,2.09-4.67,4.67-4.67,4.67,2.09,4.67,4.67Z"/>
      <path class="d" d="m478.85,297.55c0,2.58-2.09,4.67-4.67,4.67s-4.66-2.09-4.66-4.67,2.09-4.67,4.66-4.67,4.67,2.09,4.67,4.67Z"/>
      <path class="d" d="m528.44,297.55c0,2.58-2.09,4.67-4.67,4.67s-4.66-2.09-4.66-4.67,2.09-4.67,4.66-4.67,4.67,2.09,4.67,4.67Z"/>
      <path class="d" d="m542.39,297.55c0,2.58-2.09,4.67-4.66,4.67s-4.67-2.09-4.67-4.67,2.09-4.67,4.67-4.67,4.66,2.09,4.66,4.67Z"/>
      <path class="d" d="m516.04,297.55c0,2.58-2.09,4.67-4.67,4.67s-4.67-2.09-4.67-4.67,2.09-4.67,4.67-4.67,4.67,2.09,4.67,4.67Z"/>
      <path class="d" d="m503.65,297.55c0,2.58-2.09,4.67-4.66,4.67s-4.67-2.09-4.67-4.67,2.09-4.67,4.67-4.67,4.66,2.09,4.66,4.67Z"/>
      <path class="d" d="m491.25,309.94c0,2.58-2.09,4.66-4.67,4.66s-4.67-2.09-4.67-4.66,2.09-4.67,4.67-4.67,4.67,2.09,4.67,4.67Z"/>
      <path class="d" d="m528.44,309.94c0,2.58-2.09,4.66-4.67,4.66s-4.66-2.09-4.66-4.66,2.09-4.67,4.66-4.67,4.67,2.09,4.67,4.67Z"/>
      <path class="d" d="m528.44,323.89c0,2.58-2.09,4.67-4.67,4.67s-4.66-2.09-4.66-4.67,2.09-4.67,4.66-4.67,4.67,2.09,4.67,4.67Z"/>
      <path class="d" d="m567.2,336.32c0,2.58-2.09,4.67-4.67,4.67s-4.67-2.09-4.67-4.67,2.09-4.66,4.67-4.66,4.67,2.09,4.67,4.66Z"/>
      <path class="d" d="m579.59,323.89c0,2.58-2.09,4.67-4.67,4.67s-4.66-2.09-4.66-4.67,2.09-4.67,4.66-4.67,4.67,2.09,4.67,4.67Z"/>
      <path class="d" d="m516.04,309.94c0,2.58-2.09,4.66-4.67,4.66s-4.67-2.09-4.67-4.66,2.09-4.67,4.67-4.67,4.67,2.09,4.67,4.67Z"/>
      <path class="d" d="m503.65,309.94c0,2.58-2.09,4.66-4.66,4.66s-4.67-2.09-4.67-4.66,2.09-4.67,4.67-4.67,4.66,2.09,4.66,4.67Z"/>
      <path class="d" d="m516.04,271.2c0,2.58-2.09,4.67-4.67,4.67s-4.67-2.09-4.67-4.67,2.09-4.67,4.67-4.67,4.67,2.09,4.67,4.67Z"/>
      <path class="d" d="m503.65,271.2c0,2.58-2.09,4.67-4.66,4.67s-4.67-2.09-4.67-4.67,2.09-4.67,4.67-4.67,4.66,2.09,4.66,4.67Z"/>
      <path class="d" d="m399.84,80.6c0,2.58-2.09,4.67-4.67,4.67s-4.67-2.09-4.67-4.67,2.09-4.67,4.67-4.67,4.67,2.09,4.67,4.67Z"/>
      <path class="d" d="m413.78,80.6c0,2.58-2.09,4.67-4.67,4.67s-4.66-2.09-4.66-4.67,2.09-4.67,4.66-4.67,4.67,2.09,4.67,4.67Z"/>
      <path class="d" d="m426.18,80.6c0,2.58-2.09,4.67-4.66,4.67s-4.67-2.09-4.67-4.67,2.09-4.67,4.67-4.67,4.66,2.09,4.66,4.67Z"/>
      <path class="d" d="m438.58,80.6c0,2.58-2.09,4.67-4.67,4.67s-4.66-2.09-4.66-4.67,2.09-4.67,4.66-4.67,4.67,2.09,4.67,4.67Z"/>
      <path class="d" d="m502.11,80.6c0,2.58-2.09,4.67-4.67,4.67s-4.67-2.09-4.67-4.67,2.09-4.67,4.67-4.67,4.67,2.09,4.67,4.67Z"/>
      <path class="d" d="m489.72,80.6c0,2.58-2.09,4.67-4.67,4.67s-4.67-2.09-4.67-4.67,2.09-4.67,4.67-4.67,4.67,2.09,4.67,4.67Z"/>
      <path class="d" d="m477.32,80.6c0,2.58-2.09,4.67-4.67,4.67s-4.66-2.09-4.66-4.67,2.09-4.67,4.66-4.67,4.67,2.09,4.67,4.67Z"/>
      <path class="d" d="m464.92,80.6c0,2.58-2.09,4.67-4.67,4.67s-4.67-2.09-4.67-4.67,2.09-4.67,4.67-4.67,4.67,2.09,4.67,4.67Z"/>
      <path class="d" d="m452.53,80.6c0,2.58-2.09,4.67-4.67,4.67s-4.67-2.09-4.67-4.67,2.09-4.67,4.67-4.67,4.67,2.09,4.67,4.67Z"/>
      <path class="d" d="m539.3,80.6c0,2.58-2.09,4.67-4.66,4.67s-4.67-2.09-4.67-4.67,2.09-4.67,4.67-4.67,4.66,2.09,4.66,4.67Z"/>
      <path class="d" d="m526.91,80.6c0,2.58-2.09,4.67-4.67,4.67s-4.66-2.09-4.66-4.67,2.09-4.67,4.66-4.67,4.67,2.09,4.67,4.67Z"/>
      <path class="d" d="m514.51,80.6c0,2.58-2.09,4.67-4.67,4.67s-4.67-2.09-4.67-4.67,2.09-4.67,4.67-4.67,4.67,2.09,4.67,4.67Z"/>
      <path class="d" d="m413.78,68.2c0,2.58-2.09,4.67-4.67,4.67s-4.66-2.09-4.66-4.67,2.09-4.67,4.66-4.67,4.67,2.09,4.67,4.67Z"/>
      <path class="d" d="m426.18,68.2c0,2.58-2.09,4.67-4.66,4.67s-4.67-2.09-4.67-4.67,2.09-4.67,4.67-4.67,4.66,2.09,4.66,4.67Z"/>
      <path class="d" d="m438.58,68.2c0,2.58-2.09,4.67-4.67,4.67s-4.66-2.09-4.66-4.67,2.09-4.67,4.66-4.67,4.67,2.09,4.67,4.67Z"/>
      <path class="d" d="m502.11,68.2c0,2.58-2.09,4.67-4.67,4.67s-4.67-2.09-4.67-4.67,2.09-4.67,4.67-4.67,4.67,2.09,4.67,4.67Z"/>
      <path class="d" d="m489.72,68.2c0,2.58-2.09,4.67-4.67,4.67s-4.67-2.09-4.67-4.67,2.09-4.67,4.67-4.67,4.67,2.09,4.67,4.67Z"/>
      <path class="d" d="m477.32,68.2c0,2.58-2.09,4.67-4.67,4.67s-4.66-2.09-4.66-4.67,2.09-4.67,4.66-4.67,4.67,2.09,4.67,4.67Z"/>
      <path class="d" d="m464.92,68.2c0,2.58-2.09,4.67-4.67,4.67s-4.67-2.09-4.67-4.67,2.09-4.67,4.67-4.67,4.67,2.09,4.67,4.67Z"/>
      <path class="d" d="m452.53,68.2c0,2.58-2.09,4.67-4.67,4.67s-4.67-2.09-4.67-4.67,2.09-4.67,4.67-4.67,4.67,2.09,4.67,4.67Z"/>
      <path class="d" d="m438.58,55.8c0,2.58-2.09,4.67-4.67,4.67s-4.66-2.09-4.66-4.67,2.09-4.67,4.66-4.67,4.67,2.09,4.67,4.67Z"/>
      <path class="d" d="m464.92,55.8c0,2.58-2.09,4.67-4.67,4.67s-4.67-2.09-4.67-4.67,2.09-4.67,4.67-4.67,4.67,2.09,4.67,4.67Z"/>
      <path class="d" d="m452.53,55.8c0,2.58-2.09,4.67-4.67,4.67s-4.67-2.09-4.67-4.67,2.09-4.67,4.67-4.67,4.67,2.09,4.67,4.67Z"/>
      <path class="d" d="m464.92,43.41c0,2.58-2.09,4.67-4.67,4.67s-4.67-2.09-4.67-4.67,2.09-4.67,4.67-4.67,4.67,2.09,4.67,4.67Z"/>
      <path class="d" d="m452.53,43.41c0,2.58-2.09,4.67-4.67,4.67s-4.67-2.09-4.67-4.67,2.09-4.67,4.67-4.67,4.67,2.09,4.67,4.67Z"/>
      <path class="d" d="m452.53,31.01c0,2.58-2.09,4.67-4.67,4.67s-4.67-2.09-4.67-4.67,2.09-4.67,4.67-4.67,4.67,2.09,4.67,4.67Z"/>
      <path class="d" d="m514.51,68.2c0,2.58-2.09,4.67-4.67,4.67s-4.67-2.09-4.67-4.67,2.09-4.67,4.67-4.67,4.67,2.09,4.67,4.67Z"/>
      <path class="d" d="m514.51,55.8c0,2.58-2.09,4.67-4.67,4.67s-4.67-2.09-4.67-4.67,2.09-4.67,4.67-4.67,4.67,2.09,4.67,4.67Z"/>
      <path class="d" d="m350.25,106.94c0,2.58-2.09,4.67-4.67,4.67s-4.67-2.09-4.67-4.67,2.09-4.67,4.67-4.67,4.67,2.09,4.67,4.67Z"/>
      <path class="d" d="m337.85,106.94c0,2.58-2.09,4.67-4.66,4.67s-4.67-2.09-4.67-4.67,2.09-4.67,4.67-4.67,4.66,2.09,4.66,4.67Z"/>
      <path class="d" d="m325.46,106.94c0,2.58-2.09,4.67-4.67,4.67s-4.67-2.09-4.67-4.67,2.09-4.67,4.67-4.67,4.67,2.09,4.67,4.67Z"/>
      <path class="d" d="m313.06,106.94c0,2.58-2.09,4.67-4.67,4.67s-4.67-2.09-4.67-4.67,2.09-4.67,4.67-4.67,4.67,2.09,4.67,4.67Z"/>
      <path class="d" d="m300.66,106.94c0,2.58-2.09,4.67-4.67,4.67s-4.67-2.09-4.67-4.67,2.09-4.67,4.67-4.67,4.67,2.09,4.67,4.67Z"/>
      <path class="d" d="m387.44,106.94c0,2.58-2.09,4.67-4.67,4.67s-4.66-2.09-4.66-4.67,2.09-4.67,4.66-4.67,4.67,2.09,4.67,4.67Z"/>
      <path class="d" d="m401.39,106.94c0,2.58-2.09,4.67-4.67,4.67s-4.67-2.09-4.67-4.67,2.09-4.67,4.67-4.67,4.67,2.09,4.67,4.67Z"/>
      <path class="d" d="m413.78,106.94c0,2.58-2.09,4.67-4.67,4.67s-4.66-2.09-4.66-4.67,2.09-4.67,4.66-4.67,4.67,2.09,4.67,4.67Z"/>
      <path class="d" d="m426.18,106.94c0,2.58-2.09,4.67-4.66,4.67s-4.67-2.09-4.67-4.67,2.09-4.67,4.67-4.67,4.66,2.09,4.66,4.67Z"/>
      <path class="d" d="m375.04,106.94c0,2.58-2.09,4.67-4.67,4.67s-4.67-2.09-4.67-4.67,2.09-4.67,4.67-4.67,4.67,2.09,4.67,4.67Z"/>
      <path class="d" d="m375.04,68.2c0,2.58-2.09,4.67-4.67,4.67s-4.67-2.09-4.67-4.67,2.09-4.67,4.67-4.67,4.67,2.09,4.67,4.67Z"/>
      <path class="d" d="m388.99,54.25c0,2.58-2.09,4.67-4.66,4.67s-4.67-2.09-4.67-4.67,2.09-4.67,4.67-4.67,4.66,2.09,4.66,4.67Z"/>
      <path class="d" d="m375.04,80.6c0,2.58-2.09,4.67-4.67,4.67s-4.67-2.09-4.67-4.67,2.09-4.67,4.67-4.67,4.67,2.09,4.67,4.67Z"/>
      <path class="d" d="m362.65,106.94c0,2.58-2.09,4.67-4.67,4.67s-4.67-2.09-4.67-4.67,2.09-4.67,4.67-4.67,4.67,2.09,4.67,4.67Z"/>
      <path class="d" d="m489.72,106.94c0,2.58-2.09,4.67-4.67,4.67s-4.67-2.09-4.67-4.67,2.09-4.67,4.67-4.67,4.67,2.09,4.67,4.67Z"/>
      <path class="d" d="m477.32,106.94c0,2.58-2.09,4.67-4.67,4.67s-4.66-2.09-4.66-4.67,2.09-4.67,4.66-4.67,4.67,2.09,4.67,4.67Z"/>
      <path class="d" d="m464.92,106.94c0,2.58-2.09,4.67-4.67,4.67s-4.67-2.09-4.67-4.67,2.09-4.67,4.67-4.67,4.67,2.09,4.67,4.67Z"/>
      <path class="d" d="m452.53,106.94c0,2.58-2.09,4.67-4.67,4.67s-4.67-2.09-4.67-4.67,2.09-4.67,4.67-4.67,4.67,2.09,4.67,4.67Z"/>
      <path class="d" d="m440.13,106.94c0,2.58-2.09,4.67-4.67,4.67s-4.66-2.09-4.66-4.67,2.09-4.67,4.66-4.67,4.67,2.09,4.67,4.67Z"/>
      <path class="d" d="m526.91,106.94c0,2.58-2.09,4.67-4.67,4.67s-4.66-2.09-4.66-4.67,2.09-4.67,4.66-4.67,4.67,2.09,4.67,4.67Z"/>
      <path class="d" d="m540.85,106.94c0,2.58-2.09,4.67-4.67,4.67s-4.67-2.09-4.67-4.67,2.09-4.67,4.67-4.67,4.67,2.09,4.67,4.67Z"/>
      <path class="d" d="m553.25,106.94c0,2.58-2.09,4.67-4.67,4.67s-4.67-2.09-4.67-4.67,2.09-4.67,4.67-4.67,4.67,2.09,4.67,4.67Z"/>
      <path class="d" d="m565.65,106.94c0,2.58-2.09,4.67-4.66,4.67s-4.67-2.09-4.67-4.67,2.09-4.67,4.67-4.67,4.66,2.09,4.66,4.67Z"/>
      <path class="d" d="m579.59,106.94c0,2.58-2.09,4.67-4.67,4.67s-4.66-2.09-4.66-4.67,2.09-4.67,4.66-4.67,4.67,2.09,4.67,4.67Z"/>
      <path class="d" d="m591.99,106.94c0,2.58-2.09,4.67-4.66,4.67s-4.67-2.09-4.67-4.67,2.09-4.67,4.67-4.67,4.66,2.09,4.66,4.67Z"/>
      <path class="d" d="m514.51,106.94c0,2.58-2.09,4.67-4.67,4.67s-4.67-2.09-4.67-4.67,2.09-4.67,4.67-4.67,4.67,2.09,4.67,4.67Z"/>
      <path class="d" d="m502.11,106.94c0,2.58-2.09,4.67-4.67,4.67s-4.67-2.09-4.67-4.67,2.09-4.67,4.67-4.67,4.67,2.09,4.67,4.67Z"/>
      <path class="d" d="m350.25,119.34c0,2.58-2.09,4.67-4.67,4.67s-4.67-2.09-4.67-4.67,2.09-4.67,4.67-4.67,4.67,2.09,4.67,4.67Z"/>
      <path class="d" d="m337.85,119.34c0,2.58-2.09,4.67-4.66,4.67s-4.67-2.09-4.67-4.67,2.09-4.67,4.67-4.67,4.66,2.09,4.66,4.67Z"/>
      <path class="d" d="m313.06,119.34c0,2.58-2.09,4.67-4.67,4.67s-4.67-2.09-4.67-4.67,2.09-4.67,4.67-4.67,4.67,2.09,4.67,4.67Z"/>
      <path class="d" d="m300.66,119.34c0,2.58-2.09,4.67-4.67,4.67s-4.67-2.09-4.67-4.67,2.09-4.67,4.67-4.67,4.67,2.09,4.67,4.67Z"/>
      <path class="d" d="m387.44,119.34c0,2.58-2.09,4.67-4.67,4.67s-4.66-2.09-4.66-4.67,2.09-4.67,4.66-4.67,4.67,2.09,4.67,4.67Z"/>
      <path class="d" d="m401.39,119.34c0,2.58-2.09,4.67-4.67,4.67s-4.67-2.09-4.67-4.67,2.09-4.67,4.67-4.67,4.67,2.09,4.67,4.67Z"/>
      <path class="d" d="m413.78,119.34c0,2.58-2.09,4.67-4.67,4.67s-4.66-2.09-4.66-4.67,2.09-4.67,4.66-4.67,4.67,2.09,4.67,4.67Z"/>
      <path class="d" d="m426.18,119.34c0,2.58-2.09,4.67-4.66,4.67s-4.67-2.09-4.67-4.67,2.09-4.67,4.67-4.67,4.66,2.09,4.66,4.67Z"/>
      <path class="d" d="m375.04,119.34c0,2.58-2.09,4.67-4.67,4.67s-4.67-2.09-4.67-4.67,2.09-4.67,4.67-4.67,4.67,2.09,4.67,4.67Z"/>
      <path class="d" d="m362.65,119.34c0,2.58-2.09,4.67-4.67,4.67s-4.67-2.09-4.67-4.67,2.09-4.67,4.67-4.67,4.67,2.09,4.67,4.67Z"/>
      <path class="d" d="m489.72,119.34c0,2.58-2.09,4.67-4.67,4.67s-4.67-2.09-4.67-4.67,2.09-4.67,4.67-4.67,4.67,2.09,4.67,4.67Z"/>
      <path class="d" d="m477.32,119.34c0,2.58-2.09,4.67-4.67,4.67s-4.66-2.09-4.66-4.67,2.09-4.67,4.66-4.67,4.67,2.09,4.67,4.67Z"/>
      <path class="d" d="m464.92,119.34c0,2.58-2.09,4.67-4.67,4.67s-4.67-2.09-4.67-4.67,2.09-4.67,4.67-4.67,4.67,2.09,4.67,4.67Z"/>
      <path class="d" d="m452.53,119.34c0,2.58-2.09,4.67-4.67,4.67s-4.67-2.09-4.67-4.67,2.09-4.67,4.67-4.67,4.67,2.09,4.67,4.67Z"/>
      <path class="d" d="m440.13,119.34c0,2.58-2.09,4.67-4.67,4.67s-4.66-2.09-4.66-4.67,2.09-4.67,4.66-4.67,4.67,2.09,4.67,4.67Z"/>
      <path class="d" d="m526.91,119.34c0,2.58-2.09,4.67-4.67,4.67s-4.66-2.09-4.66-4.67,2.09-4.67,4.66-4.67,4.67,2.09,4.67,4.67Z"/>
      <path class="d" d="m540.85,119.34c0,2.58-2.09,4.67-4.67,4.67s-4.67-2.09-4.67-4.67,2.09-4.67,4.67-4.67,4.67,2.09,4.67,4.67Z"/>
      <path class="d" d="m565.65,119.34c0,2.58-2.09,4.67-4.66,4.67s-4.67-2.09-4.67-4.67,2.09-4.67,4.67-4.67,4.66,2.09,4.66,4.67Z"/>
      <path class="d" d="m579.59,119.34c0,2.58-2.09,4.67-4.67,4.67s-4.66-2.09-4.66-4.67,2.09-4.67,4.66-4.67,4.67,2.09,4.67,4.67Z"/>
      <path class="d" d="m514.51,119.34c0,2.58-2.09,4.67-4.67,4.67s-4.67-2.09-4.67-4.67,2.09-4.67,4.67-4.67,4.67,2.09,4.67,4.67Z"/>
      <path class="d" d="m502.11,119.34c0,2.58-2.09,4.67-4.67,4.67s-4.67-2.09-4.67-4.67,2.09-4.67,4.67-4.67,4.67,2.09,4.67,4.67Z"/>
      <path class="d" d="m350.25,131.73c0,2.58-2.09,4.67-4.67,4.67s-4.67-2.09-4.67-4.67,2.09-4.67,4.67-4.67,4.67,2.09,4.67,4.67Z"/>
      <path class="d" d="m337.85,131.73c0,2.58-2.09,4.67-4.66,4.67s-4.67-2.09-4.67-4.67,2.09-4.67,4.67-4.67,4.66,2.09,4.66,4.67Z"/>
      <path class="d" d="m323.91,131.73c0,2.58-2.09,4.67-4.67,4.67s-4.67-2.09-4.67-4.67,2.09-4.67,4.67-4.67,4.67,2.09,4.67,4.67Z"/>
      <path class="d" d="m311.51,131.73c0,2.58-2.09,4.67-4.67,4.67s-4.67-2.09-4.67-4.67,2.09-4.67,4.67-4.67,4.67,2.09,4.67,4.67Z"/>
      <path class="d" d="m387.44,131.73c0,2.58-2.09,4.67-4.67,4.67s-4.66-2.09-4.66-4.67,2.09-4.67,4.66-4.67,4.67,2.09,4.67,4.67Z"/>
      <path class="d" d="m401.39,131.73c0,2.58-2.09,4.67-4.67,4.67s-4.67-2.09-4.67-4.67,2.09-4.67,4.67-4.67,4.67,2.09,4.67,4.67Z"/>
      <path class="d" d="m413.78,131.73c0,2.58-2.09,4.67-4.67,4.67s-4.66-2.09-4.66-4.67,2.09-4.67,4.66-4.67,4.67,2.09,4.67,4.67Z"/>
      <path class="d" d="m426.18,131.73c0,2.58-2.09,4.67-4.66,4.67s-4.67-2.09-4.67-4.67,2.09-4.67,4.67-4.67,4.66,2.09,4.66,4.67Z"/>
      <path class="d" d="m375.04,131.73c0,2.58-2.09,4.67-4.67,4.67s-4.67-2.09-4.67-4.67,2.09-4.67,4.67-4.67,4.67,2.09,4.67,4.67Z"/>
      <path class="d" d="m362.65,131.73c0,2.58-2.09,4.67-4.67,4.67s-4.67-2.09-4.67-4.67,2.09-4.67,4.67-4.67,4.67,2.09,4.67,4.67Z"/>
      <path class="d" d="m489.72,131.73c0,2.58-2.09,4.67-4.67,4.67s-4.67-2.09-4.67-4.67,2.09-4.67,4.67-4.67,4.67,2.09,4.67,4.67Z"/>
      <path class="d" d="m477.32,131.73c0,2.58-2.09,4.67-4.67,4.67s-4.66-2.09-4.66-4.67,2.09-4.67,4.66-4.67,4.67,2.09,4.67,4.67Z"/>
      <path class="d" d="m464.92,131.73c0,2.58-2.09,4.67-4.67,4.67s-4.67-2.09-4.67-4.67,2.09-4.67,4.67-4.67,4.67,2.09,4.67,4.67Z"/>
      <path class="d" d="m452.53,131.73c0,2.58-2.09,4.67-4.67,4.67s-4.67-2.09-4.67-4.67,2.09-4.67,4.67-4.67,4.67,2.09,4.67,4.67Z"/>
      <path class="d" d="m440.13,131.73c0,2.58-2.09,4.67-4.67,4.67s-4.66-2.09-4.66-4.67,2.09-4.67,4.66-4.67,4.67,2.09,4.67,4.67Z"/>
      <path class="d" d="m514.51,131.73c0,2.58-2.09,4.67-4.67,4.67s-4.67-2.09-4.67-4.67,2.09-4.67,4.67-4.67,4.67,2.09,4.67,4.67Z"/>
      <path class="d" d="m502.11,131.73c0,2.58-2.09,4.67-4.67,4.67s-4.67-2.09-4.67-4.67,2.09-4.67,4.67-4.67,4.67,2.09,4.67,4.67Z"/>
      <path class="d" d="m71.32,80.6c0,2.58-2.09,4.67-4.67,4.67s-4.67-2.09-4.67-4.67,2.09-4.67,4.67-4.67,4.67,2.09,4.67,4.67Z"/>
      <path class="d" d="m58.92,80.6c0,2.58-2.09,4.67-4.67,4.67s-4.67-2.09-4.67-4.67,2.09-4.67,4.67-4.67,4.67,2.09,4.67,4.67Z"/>
      <path class="d" d="m46.52,80.6c0,2.58-2.09,4.67-4.67,4.67s-4.67-2.09-4.67-4.67,2.09-4.67,4.67-4.67,4.67,2.09,4.67,4.67Z"/>
      <path class="d" d="m34.13,80.6c0,2.58-2.09,4.67-4.67,4.67s-4.67-2.09-4.67-4.67,2.09-4.67,4.67-4.67,4.67,2.09,4.67,4.67Z"/>
      <path class="d" d="m21.73,80.6c0,2.58-2.09,4.67-4.67,4.67s-4.67-2.09-4.67-4.67,2.09-4.67,4.67-4.67,4.67,2.09,4.67,4.67Z"/>
      <path class="d" d="m108.51,80.6c0,2.58-2.09,4.67-4.67,4.67s-4.67-2.09-4.67-4.67,2.09-4.67,4.67-4.67,4.67,2.09,4.67,4.67Z"/>
      <path class="d" d="m122.45,80.6c0,2.58-2.09,4.67-4.67,4.67s-4.67-2.09-4.67-4.67,2.09-4.67,4.67-4.67,4.67,2.09,4.67,4.67Z"/>
      <path class="d" d="m134.85,80.6c0,2.58-2.09,4.67-4.67,4.67s-4.67-2.09-4.67-4.67,2.09-4.67,4.67-4.67,4.67,2.09,4.67,4.67Z"/>
      <path class="d" d="m147.25,80.6c0,2.58-2.09,4.67-4.67,4.67s-4.67-2.09-4.67-4.67,2.09-4.67,4.67-4.67,4.67,2.09,4.67,4.67Z"/>
      <path class="d" d="m161.19,80.6c0,2.58-2.09,4.67-4.67,4.67s-4.67-2.09-4.67-4.67,2.09-4.67,4.67-4.67,4.67,2.09,4.67,4.67Z"/>
      <path class="d" d="m96.11,80.6c0,2.58-2.09,4.67-4.67,4.67s-4.67-2.09-4.67-4.67,2.09-4.67,4.67-4.67,4.67,2.09,4.67,4.67Z"/>
      <path class="d" d="m83.71,80.6c0,2.58-2.09,4.67-4.67,4.67s-4.67-2.09-4.67-4.67,2.09-4.67,4.67-4.67,4.67,2.09,4.67,4.67Z"/>
      <circle class="d" cx="103.84" cy="68.2" r="4.67"/>
      <circle class="d" cx="117.79" cy="68.2" r="4.67"/>
      <path class="d" d="m134.85,68.2c0,2.58-2.09,4.67-4.67,4.67s-4.67-2.09-4.67-4.67,2.09-4.67,4.67-4.67,4.67,2.09,4.67,4.67Z"/>
      <circle class="d" cx="142.58" cy="68.2" r="4.67"/>
      <circle class="d" cx="156.53" cy="68.2" r="4.67"/>
      <path class="d" d="m96.11,68.2c0,2.58-2.09,4.67-4.67,4.67s-4.67-2.09-4.67-4.67,2.09-4.67,4.67-4.67,4.67,2.09,4.67,4.67Z"/>
      <path class="d" d="m83.71,68.2c0,2.58-2.09,4.67-4.67,4.67s-4.67-2.09-4.67-4.67,2.09-4.67,4.67-4.67,4.67,2.09,4.67,4.67Z"/>
      <path class="d" d="m108.51,55.8c0,2.58-2.09,4.67-4.67,4.67s-4.67-2.09-4.67-4.67,2.09-4.67,4.67-4.67,4.67,2.09,4.67,4.67Z"/>
      <path class="d" d="m122.45,55.8c0,2.58-2.09,4.67-4.67,4.67s-4.67-2.09-4.67-4.67,2.09-4.67,4.67-4.67,4.67,2.09,4.67,4.67Z"/>
      <path class="d" d="m134.85,55.8c0,2.58-2.09,4.67-4.67,4.67s-4.67-2.09-4.67-4.67,2.09-4.67,4.67-4.67,4.67,2.09,4.67,4.67Z"/>
      <path class="d" d="m147.25,55.8c0,2.58-2.09,4.67-4.67,4.67s-4.67-2.09-4.67-4.67,2.09-4.67,4.67-4.67,4.67,2.09,4.67,4.67Z"/>
      <path class="d" d="m96.11,55.8c0,2.58-2.09,4.67-4.67,4.67s-4.67-2.09-4.67-4.67,2.09-4.67,4.67-4.67,4.67,2.09,4.67,4.67Z"/>
      <path class="d" d="m108.51,43.41c0,2.58-2.09,4.67-4.67,4.67s-4.67-2.09-4.67-4.67,2.09-4.67,4.67-4.67,4.67,2.09,4.67,4.67Z"/>
      <path class="d" d="m122.45,43.41c0,2.58-2.09,4.67-4.67,4.67s-4.67-2.09-4.67-4.67,2.09-4.67,4.67-4.67,4.67,2.09,4.67,4.67Z"/>
      <path class="d" d="m134.85,43.41c0,2.58-2.09,4.67-4.67,4.67s-4.67-2.09-4.67-4.67,2.09-4.67,4.67-4.67,4.67,2.09,4.67,4.67Z"/>
      <path class="d" d="m147.25,43.41c0,2.58-2.09,4.67-4.67,4.67s-4.67-2.09-4.67-4.67,2.09-4.67,4.67-4.67,4.67,2.09,4.67,4.67Z"/>
      <path class="d" d="m96.11,43.41c0,2.58-2.09,4.67-4.67,4.67s-4.67-2.09-4.67-4.67,2.09-4.67,4.67-4.67,4.67,2.09,4.67,4.67Z"/>
      <path class="d" d="m108.51,31.01c0,2.58-2.09,4.67-4.67,4.67s-4.67-2.09-4.67-4.67,2.09-4.67,4.67-4.67,4.67,2.09,4.67,4.67Z"/>
      <path class="d" d="m122.45,31.01c0,2.58-2.09,4.67-4.67,4.67s-4.67-2.09-4.67-4.67,2.09-4.67,4.67-4.67,4.67,2.09,4.67,4.67Z"/>
      <path class="d" d="m134.85,31.01c0,2.58-2.09,4.67-4.67,4.67s-4.67-2.09-4.67-4.67,2.09-4.67,4.67-4.67,4.67,2.09,4.67,4.67Z"/>
      <path class="d" d="m147.25,31.01c0,2.58-2.09,4.67-4.67,4.67s-4.67-2.09-4.67-4.67,2.09-4.67,4.67-4.67,4.67,2.09,4.67,4.67Z"/>
      <path class="d" d="m96.11,31.01c0,2.58-2.09,4.67-4.67,4.67s-4.67-2.09-4.67-4.67,2.09-4.67,4.67-4.67,4.67,2.09,4.67,4.67Z"/>
      <path class="d" d="m173.59,31.01c0,2.58-2.09,4.67-4.67,4.67s-4.67-2.09-4.67-4.67,2.09-4.67,4.67-4.67,4.67,2.09,4.67,4.67Z"/>
      <path class="d" d="m187.54,31.01c0,2.58-2.09,4.67-4.67,4.67s-4.67-2.09-4.67-4.67,2.09-4.67,4.67-4.67,4.67,2.09,4.67,4.67Z"/>
      <path class="d" d="m199.94,31.01c0,2.58-2.09,4.67-4.67,4.67s-4.67-2.09-4.67-4.67,2.09-4.67,4.67-4.67,4.67,2.09,4.67,4.67Z"/>
      <path class="d" d="m212.33,31.01c0,2.58-2.09,4.67-4.67,4.67s-4.67-2.09-4.67-4.67,2.09-4.67,4.67-4.67,4.67,2.09,4.67,4.67Z"/>
      <path class="d" d="m224.73,31.01c0,2.58-2.09,4.67-4.67,4.67s-4.67-2.09-4.67-4.67,2.09-4.67,4.67-4.67,4.67,2.09,4.67,4.67Z"/>
      <path class="d" d="m237.13,31.01c0,2.58-2.09,4.67-4.67,4.67s-4.67-2.09-4.67-4.67,2.09-4.67,4.67-4.67,4.67,2.09,4.67,4.67Z"/>
      <path class="d" d="m249.52,31.01c0,2.58-2.09,4.67-4.67,4.67s-4.67-2.09-4.67-4.67,2.09-4.67,4.67-4.67,4.67,2.09,4.67,4.67Z"/>
      <path class="d" d="m173.59,43.41c0,2.58-2.09,4.67-4.67,4.67s-4.67-2.09-4.67-4.67,2.09-4.67,4.67-4.67,4.67,2.09,4.67,4.67Z"/>
      <path class="d" d="m187.54,43.41c0,2.58-2.09,4.67-4.67,4.67s-4.67-2.09-4.67-4.67,2.09-4.67,4.67-4.67,4.67,2.09,4.67,4.67Z"/>
      <path class="d" d="m199.94,43.41c0,2.58-2.09,4.67-4.67,4.67s-4.67-2.09-4.67-4.67,2.09-4.67,4.67-4.67,4.67,2.09,4.67,4.67Z"/>
      <path class="d" d="m212.33,43.41c0,2.58-2.09,4.67-4.67,4.67s-4.67-2.09-4.67-4.67,2.09-4.67,4.67-4.67,4.67,2.09,4.67,4.67Z"/>
      <path class="d" d="m224.73,43.41c0,2.58-2.09,4.67-4.67,4.67s-4.67-2.09-4.67-4.67,2.09-4.67,4.67-4.67,4.67,2.09,4.67,4.67Z"/>
      <path class="d" d="m237.13,43.41c0,2.58-2.09,4.67-4.67,4.67s-4.67-2.09-4.67-4.67,2.09-4.67,4.67-4.67,4.67,2.09,4.67,4.67Z"/>
      <path class="d" d="m249.52,43.41c0,2.58-2.09,4.67-4.67,4.67s-4.67-2.09-4.67-4.67,2.09-4.67,4.67-4.67,4.67,2.09,4.67,4.67Z"/>
      <circle class="d" cx="195.27" cy="54.25" r="4.67"/>
      <circle class="d" cx="207.67" cy="54.25" r="4.67"/>
      <path class="d" d="m224.73,54.25c0,2.58-2.09,4.67-4.67,4.67s-4.67-2.09-4.67-4.67,2.09-4.67,4.67-4.67,4.67,2.09,4.67,4.67Z"/>
      <path class="d" d="m237.13,54.25c0,2.58-2.09,4.67-4.67,4.67s-4.67-2.09-4.67-4.67,2.09-4.67,4.67-4.67,4.67,2.09,4.67,4.67Z"/>
      <circle class="d" cx="244.86" cy="54.25" r="4.67"/>
      <circle class="d" cx="195.27" cy="68.2" r="4.67"/>
      <circle class="d" cx="207.67" cy="68.2" r="4.67"/>
      <path class="d" d="m224.73,68.2c0,2.58-2.09,4.67-4.67,4.67s-4.67-2.09-4.67-4.67,2.09-4.67,4.67-4.67,4.67,2.09,4.67,4.67Z"/>
      <path class="d" d="m237.13,68.2c0,2.58-2.09,4.67-4.67,4.67s-4.67-2.09-4.67-4.67,2.09-4.67,4.67-4.67,4.67,2.09,4.67,4.67Z"/>
      <circle class="d" cx="244.86" cy="68.2" r="4.67"/>
      <path class="d" d="m199.94,80.6c0,2.58-2.09,4.67-4.67,4.67s-4.67-2.09-4.67-4.67,2.09-4.67,4.67-4.67,4.67,2.09,4.67,4.67Z"/>
      <path class="d" d="m212.33,80.6c0,2.58-2.09,4.67-4.67,4.67s-4.67-2.09-4.67-4.67,2.09-4.67,4.67-4.67,4.67,2.09,4.67,4.67Z"/>
      <path class="d" d="m224.73,80.6c0,2.58-2.09,4.67-4.67,4.67s-4.67-2.09-4.67-4.67,2.09-4.67,4.67-4.67,4.67,2.09,4.67,4.67Z"/>
      <path class="d" d="m237.13,80.6c0,2.58-2.09,4.67-4.67,4.67s-4.67-2.09-4.67-4.67,2.09-4.67,4.67-4.67,4.67,2.09,4.67,4.67Z"/>
      <path class="d" d="m249.52,80.6c0,2.58-2.09,4.67-4.67,4.67s-4.67-2.09-4.67-4.67,2.09-4.67,4.67-4.67,4.67,2.09,4.67,4.67Z"/>
      <path class="d" d="m199.94,92.99c0,2.58-2.09,4.67-4.67,4.67s-4.67-2.09-4.67-4.67,2.09-4.67,4.67-4.67,4.67,2.09,4.67,4.67Z"/>
      <path class="d" d="m212.33,92.99c0,2.58-2.09,4.67-4.67,4.67s-4.67-2.09-4.67-4.67,2.09-4.67,4.67-4.67,4.67,2.09,4.67,4.67Z"/>
      <path class="d" d="m224.73,92.99c0,2.58-2.09,4.67-4.67,4.67s-4.67-2.09-4.67-4.67,2.09-4.67,4.67-4.67,4.67,2.09,4.67,4.67Z"/>
      <circle class="d" cx="195.27" cy="105.39" r="4.67"/>
      <circle class="d" cx="207.67" cy="105.39" r="4.67"/>
      <path class="d" d="m212.33,119.34c0,2.58-2.09,4.67-4.67,4.67s-4.67-2.09-4.67-4.67,2.09-4.67,4.67-4.67,4.67,2.09,4.67,4.67Z"/>
      <path class="d" d="m224.73,105.39c0,2.58-2.09,4.67-4.67,4.67s-4.67-2.09-4.67-4.67,2.09-4.67,4.67-4.67,4.67,2.09,4.67,4.67Z"/>
      <circle class="d" cx="244.86" cy="105.39" r="4.67"/>
      <circle class="d" cx="257.25" cy="105.39" r="4.67"/>
      <path class="d" d="m237.13,92.99c0,2.58-2.09,4.67-4.67,4.67s-4.67-2.09-4.67-4.67,2.09-4.67,4.67-4.67,4.67,2.09,4.67,4.67Z"/>
      <path class="d" d="m187.54,17.06c0,2.58-2.09,4.67-4.67,4.67s-4.67-2.09-4.67-4.67,2.09-4.67,4.67-4.67,4.67,2.09,4.67,4.67Z"/>
      <circle class="d" cx="195.27" cy="17.06" r="4.67"/>
      <circle class="d" cx="207.67" cy="17.06" r="4.67"/>
      <path class="d" d="m224.73,17.06c0,2.58-2.09,4.67-4.67,4.67s-4.67-2.09-4.67-4.67,2.09-4.67,4.67-4.67,4.67,2.09,4.67,4.67Z"/>
      <path class="d" d="m237.13,17.06c0,2.58-2.09,4.67-4.67,4.67s-4.67-2.09-4.67-4.67,2.09-4.67,4.67-4.67,4.67,2.09,4.67,4.67Z"/>
      <path class="d" d="m212.33,4.67c0,2.58-2.09,4.67-4.67,4.67s-4.67-2.09-4.67-4.67,2.09-4.67,4.67-4.67,4.67,2.09,4.67,4.67Z"/>
      <path class="d" d="m224.73,4.67c0,2.58-2.09,4.67-4.67,4.67s-4.67-2.09-4.67-4.67,2.09-4.67,4.67-4.67,4.67,2.09,4.67,4.67Z"/>
      <path class="d" d="m237.13,4.67c0,2.58-2.09,4.67-4.67,4.67s-4.67-2.09-4.67-4.67,2.09-4.67,4.67-4.67,4.67,2.09,4.67,4.67Z"/>
      <circle class="d" cx="244.86" cy="17.06" r="4.67"/>
      <path class="d" d="m313.06,31.01c0,2.58-2.09,4.67-4.67,4.67s-4.67-2.09-4.67-4.67,2.09-4.67,4.67-4.67,4.67,2.09,4.67,4.67Z"/>
      <path class="d" d="m313.06,17.06c0,2.58-2.09,4.67-4.67,4.67s-4.67-2.09-4.67-4.67,2.09-4.67,4.67-4.67,4.67,2.09,4.67,4.67Z"/>
      <path class="d" d="m161.19,31.01c0,2.58-2.09,4.67-4.67,4.67s-4.67-2.09-4.67-4.67,2.09-4.67,4.67-4.67,4.67,2.09,4.67,4.67Z"/>
      <path class="d" d="m134.85,17.06c0,2.58-2.09,4.67-4.67,4.67s-4.67-2.09-4.67-4.67,2.09-4.67,4.67-4.67,4.67,2.09,4.67,4.67Z"/>
      <circle class="d" cx="142.58" cy="17.06" r="4.67"/>
      <circle class="d" cx="156.53" cy="17.06" r="4.67"/>
      <path class="d" d="m147.25,4.67c0,2.58-2.09,4.67-4.67,4.67s-4.67-2.09-4.67-4.67,2.09-4.67,4.67-4.67,4.67,2.09,4.67,4.67Z"/>
      <path class="d" d="m161.19,4.67c0,2.58-2.09,4.67-4.67,4.67s-4.67-2.09-4.67-4.67,2.09-4.67,4.67-4.67,4.67,2.09,4.67,4.67Z"/>
      <path class="d" d="m83.71,55.8c0,2.58-2.09,4.67-4.67,4.67s-4.67-2.09-4.67-4.67,2.09-4.67,4.67-4.67,4.67,2.09,4.67,4.67Z"/>
      <path class="d" d="m122.45,132.51c0,2.58-2.09,4.67-4.67,4.67s-4.67-2.09-4.67-4.67,2.09-4.67,4.67-4.67,4.67,2.09,4.67,4.67Z"/>
      <path class="d" d="m110.06,132.51c0,2.58-2.09,4.67-4.67,4.67s-4.67-2.09-4.67-4.67,2.09-4.67,4.67-4.67,4.67,2.09,4.67,4.67Z"/>
      <path class="d" d="m97.66,132.51c0,2.58-2.09,4.67-4.67,4.67s-4.67-2.09-4.67-4.67,2.09-4.67,4.67-4.67,4.67,2.09,4.67,4.67Z"/>
      <path class="d" d="m85.26,132.51c0,2.58-2.09,4.67-4.67,4.67s-4.67-2.09-4.67-4.67,2.09-4.67,4.67-4.67,4.67,2.09,4.67,4.67Z"/>
      <path class="d" d="m71.32,132.51c0,2.58-2.09,4.67-4.67,4.67s-4.67-2.09-4.67-4.67,2.09-4.67,4.67-4.67,4.67,2.09,4.67,4.67Z"/>
      <path class="d" d="m159.65,132.51c0,2.58-2.09,4.67-4.67,4.67s-4.67-2.09-4.67-4.67,2.09-4.67,4.67-4.67,4.67,2.09,4.67,4.67Z"/>
      <path class="d" d="m159.65,118.56c0,2.58-2.09,4.67-4.67,4.67s-4.67-2.09-4.67-4.67,2.09-4.67,4.67-4.67,4.67,2.09,4.67,4.67Z"/>
      <path class="d" d="m159.65,106.17c0,2.58-2.09,4.67-4.67,4.67s-4.67-2.09-4.67-4.67,2.09-4.67,4.67-4.67,4.67,2.09,4.67,4.67Z"/>
      <path class="d" d="m159.65,93.77c0,2.58-2.09,4.67-4.67,4.67s-4.67-2.09-4.67-4.67,2.09-4.67,4.67-4.67,4.67,2.09,4.67,4.67Z"/>
      <path class="d" d="m173.59,118.56c0,2.58-2.09,4.67-4.67,4.67s-4.67-2.09-4.67-4.67,2.09-4.67,4.67-4.67,4.67,2.09,4.67,4.67Z"/>
      <path class="d" d="m173.59,106.17c0,2.58-2.09,4.67-4.67,4.67s-4.67-2.09-4.67-4.67,2.09-4.67,4.67-4.67,4.67,2.09,4.67,4.67Z"/>
      <path class="d" d="m173.59,93.77c0,2.58-2.09,4.67-4.67,4.67s-4.67-2.09-4.67-4.67,2.09-4.67,4.67-4.67,4.67,2.09,4.67,4.67Z"/>
      <path class="d" d="m173.59,132.51c0,2.58-2.09,4.67-4.67,4.67s-4.67-2.09-4.67-4.67,2.09-4.67,4.67-4.67,4.67,2.09,4.67,4.67Z"/>
      <path class="d" d="m185.99,132.51c0,2.58-2.09,4.67-4.67,4.67s-4.67-2.09-4.67-4.67,2.09-4.67,4.67-4.67,4.67,2.09,4.67,4.67Z"/>
      <path class="d" d="m134.85,132.51c0,2.58-2.09,4.67-4.67,4.67s-4.67-2.09-4.67-4.67,2.09-4.67,4.67-4.67,4.67,2.09,4.67,4.67Z"/>
      <path class="d" d="m147.25,196.04c0,2.58-2.09,4.67-4.67,4.67s-4.67-2.09-4.67-4.67,2.09-4.66,4.67-4.66,4.67,2.09,4.67,4.66Z"/>
      <path class="d" d="m185.47,233.75c0,2.58-2.09,4.67-4.67,4.67s-4.67-2.09-4.67-4.67,2.09-4.67,4.67-4.67,4.67,2.09,4.67,4.67Z"/>
      <path class="d" d="m197.87,246.15c0,2.58-2.09,4.67-4.67,4.67s-4.67-2.09-4.67-4.67,2.09-4.67,4.67-4.67,4.67,2.09,4.67,4.67Z"/>
      <path class="d" d="m197.87,260.1c0,2.58-2.09,4.66-4.67,4.66s-4.67-2.09-4.67-4.66,2.09-4.67,4.67-4.67,4.67,2.09,4.67,4.67Z"/>
      <path class="d" d="m211.82,260.1c0,2.58-2.09,4.66-4.67,4.66s-4.67-2.09-4.67-4.66,2.09-4.67,4.67-4.67,4.67,2.09,4.67,4.67Z"/>
      <path class="d" d="m224.21,260.1c0,2.58-2.09,4.66-4.67,4.66s-4.67-2.09-4.67-4.66,2.09-4.67,4.67-4.67,4.67,2.09,4.67,4.67Z"/>
    </g>
  </g>
</svg>